<svg xmlns="http://www.w3.org/2000/svg" width="877.001" height="321.998" viewBox="0 0 877.001 321.998">
  <path id="Union_6" data-name="Union 6" d="M339,322H0v-.736C0,289.421.016,210.064.013,161H115.722V95.431c16.235.022,32.939.065,49.649.124l1.635,0c17.924,0,32.463-1.04,44.448-3.18,11.05-1.973,19.966-4.9,27.257-8.949A55.66,55.66,0,0,0,255.137,69.6c4.381-5.332,8.058-11.4,11.951-17.831,3.595-5.935,7.311-12.069,12.1-18.618a73.88,73.88,0,0,1,9.132-10.313A75.783,75.783,0,0,1,298.4,14.907a86.329,86.329,0,0,1,20.954-9.943A103.4,103.4,0,0,1,337.994.825,97.95,97.95,0,0,1,350.273,0c1.7,0,2.642.059,2.647.059H524.081c.005,0,.947-.059,2.647-.059a97.97,97.97,0,0,1,12.279.825A103.4,103.4,0,0,1,557.65,4.964,86.329,86.329,0,0,1,578.6,14.907a75.842,75.842,0,0,1,10.076,7.927,73.937,73.937,0,0,1,9.132,10.313c4.79,6.549,8.507,12.684,12.1,18.618,3.893,6.428,7.57,12.5,11.951,17.831a55.649,55.649,0,0,0,16.424,13.833c7.292,4.048,16.207,6.976,27.257,8.949,11.985,2.139,26.524,3.18,44.448,3.18l1.635,0c16.71-.059,33.414-.1,49.649-.124V161H876.988c0,49.065.007,128.422.013,160.263V322Z" fill="#eae6e4"/>
</svg>
