<svg xmlns="http://www.w3.org/2000/svg" width="877.001" height="321.755" viewBox="0 0 877.001 321.755">
  <path id="Subtraction_36" data-name="Subtraction 36" d="M3367.5,227.8h-877v-1.586c0-24.324.016-107.7.012-159.291h115.709V1.407c16.177.023,32.882.065,49.649.124l1.635,0c17.922,0,32.461-1.039,44.448-3.177,11.05-1.972,19.966-4.9,27.257-8.942a55.655,55.655,0,0,0,16.424-13.822c4.371-5.317,8.039-11.366,11.922-17.77l.011-.018.018-.03,0-.005,0,0c3.589-5.921,7.3-12.044,12.095-18.594a73.764,73.764,0,0,1,9.132-10.305,75.721,75.721,0,0,1,10.075-7.921,86.341,86.341,0,0,1,20.954-9.936,103.515,103.515,0,0,1,18.643-4.136,98.076,98.076,0,0,1,12.279-.824c1.678,0,2.643.059,2.647.059h171.161s.917-.059,2.647-.059a98.086,98.086,0,0,1,12.279.824,103.389,103.389,0,0,1,18.644,4.136,86.311,86.311,0,0,1,20.954,9.936,75.72,75.72,0,0,1,10.075,7.921,73.838,73.838,0,0,1,9.132,10.305c4.8,6.56,8.511,12.681,12.1,18.6l.009.014,0,0c3.888,6.415,7.561,12.472,11.942,17.8a55.68,55.68,0,0,0,16.424,13.822c7.292,4.045,16.208,6.97,27.257,8.942,11.989,2.138,26.528,3.177,44.448,3.177l1.635,0c16.729-.059,33.434-.1,49.649-.124V66.926h115.709c0,46.462.006,122.524.013,160.142v.734Z" transform="translate(-2490.5 93.952)" fill="#fcfcfc"/>
</svg>
