<?xml version="1.0" encoding="UTF-8"?>
<svg id="Layer_1" data-name="Layer 1" xmlns="http://www.w3.org/2000/svg" version="1.1" viewBox="0 0 240.94 240.94">
  <defs>
    <style>
      .cls-1 {
        fill: #266522;
        stroke-width: 0px;
      }
    </style>
  </defs>
  <path class="cls-1" d="M120.47,238.79C55.18,238.79,2.06,185.67,2.06,120.37S55.18,1.96,120.47,1.96s118.42,53.12,118.42,118.42-53.12,118.42-118.42,118.42ZM120.47,7.62C58.3,7.62,7.72,58.2,7.72,120.37s50.58,112.75,112.75,112.75,112.75-50.58,112.75-112.75S182.64,7.62,120.47,7.62Z"/>
  <path class="cls-1" d="M175.98,103.99c-.47,2.37-1.96,4.1-3.53,5.82-4.44,4.85-8.83,9.74-13.36,14.75,2.6,2.1,4.62,4.56,3.64,8.13-.91,3.32-3.2,5.38-6.54,6.23.94,5.43-4.68,10.41-9.33,9.11-.95,3.28-2.83,5.75-6.24,6.67-3.59.96-6.03-1.15-8.17-3.38-.97,1.25-1.78,2.54-2.81,3.6-2.68,2.76-6.79,2.84-9.66.26-1.85-1.66-3.65-3.36-5.28-4.86-1.3,1.18-2.64,2.19-3.73,3.43-3.92,4.45-9.94,3.21-12.8-2.22-.12-.22-.2-.46-.3-.68-5.48,2.05-9.24.42-11.52-5.03-3.18,1.08-5.88.25-8.22-2.15-2.39-2.47-2.9-5.21-1.61-8.1-1.31-.99-2.67-1.82-3.79-2.9-2.84-2.72-2.89-6.82-.22-9.71,1.47-1.59,2.99-3.14,4.56-4.79-.54-.47-1.03-.91-1.54-1.35-2.61-2.23-5.22-4.45-7.83-6.68-3.38-2.88-3.65-6.97-.68-10.29,3.25-3.64,6.49-7.28,9.74-10.92,2.85-3.2,6.98-4.14,10.92-2.48,1.6.67,3.18,1.38,4.78,2.04,2.95,1.21,5.9,1.2,8.84-.02,1.5-.62,2.99-1.27,4.48-1.9,4.05-1.72,8.06-1.69,12.01.32.03.02.07.03.1.05,1.43.98,2.63,1.06,4.32.05,3.07-1.83,6.49-1.81,9.78-.3,2.59,1.19,5.12,2.49,7.7,3.71,2.71,1.28,5.38,1.16,7.95-.41,2.65-1.62,5.27-3.28,7.91-4.91,3.41-2.11,7.51-1.48,10.03,1.64,2.99,3.71,5.93,7.47,8.79,11.28.73.98,1.08,2.24,1.6,3.37v2.6ZM123.72,138.21c.33.29.6.52.86.76,3.96,3.65,7.9,7.31,11.88,10.94.52.47,1.15.91,1.81,1.11,1.64.49,3.33-.5,4.39-2.42.74-1.35.45-2.81-.83-4-4.03-3.73-8.06-7.46-12.1-11.18-.26-.24-.55-.44-.88-.7.95-1.01,1.77-1.89,2.62-2.8.37.34.64.57.91.82,4.51,4.17,9.01,8.34,13.54,12.49.49.45,1.09.88,1.71,1.08,1.93.6,3.19-.54,4.41-2.34.86-1.26.54-2.84-.71-4-4.92-4.58-9.85-9.14-14.79-13.7-.31-.28-.67-.51-1.04-.79,1-1.07,1.81-1.93,2.67-2.85.47.43.89.82,1.31,1.21,4.46,4.12,8.9,8.26,13.37,12.36,1.71,1.56,3.39,1.33,5.16-.58,1.56-1.69,1.56-3.45,0-4.95-8.71-8.36-17.75-16.34-27.86-23.01-2.31-1.52-4.63-1.64-7.03-.29-.97.55-1.92,1.15-2.88,1.72-4.02,2.37-8.22,1.16-11.05-3.13-1.78-2.71-1.65-7.17,2.48-9.74,1.47-.91,2.84-1.98,4.26-2.98.25-.17.47-.38.78-.62-2.94-1.71-5.89-1.91-8.93-.75-1.65.63-3.26,1.38-4.89,2.06-4.03,1.69-8.06,1.7-12.09-.03-1.56-.67-3.12-1.33-4.68-1.98-2.31-.97-4.72-.44-6.41,1.43-3.31,3.68-6.61,7.37-9.89,11.07-1.53,1.72-1.41,3.4.32,4.89,2.74,2.36,5.49,4.69,8.24,7.04.43.37.87.72,1.4,1.16,2.27-2.78,4.74-5.27,8.64-4.27,3.64.93,5.8,3.45,6.45,7.3,2.7-.17,4.73,1.14,6.48,3.05,1.84,2.02,2.19,4.38,1.56,6.98,3.99,1.08,5.61,4.1,6.58,7.7.13.01.28.04.42.05,5.31.28,8.78,5.3,7.19,10.33-.09.29.1.82.34,1.05,1.45,1.41,2.95,2.77,4.43,4.15,2.25,2.08,3.83,2,5.87-.3,1.37-1.55,1.31-3.27-.18-4.69-1.1-1.04-2.23-2.06-3.34-3.09-.99-.92-1.99-1.84-3.02-2.8.9-.96,1.7-1.83,2.54-2.73ZM156.35,121.95c.22-.23.4-.4.56-.59,4.63-5.12,9.25-10.23,13.88-15.35,1.81-2,1.88-4.1.22-6.24-2.69-3.44-5.38-6.89-8.07-10.33-1.54-1.97-3.49-2.34-5.61-1.03-2.61,1.61-5.18,3.28-7.82,4.85-3.68,2.19-7.5,2.38-11.38.57-2.61-1.22-5.18-2.54-7.8-3.74-2.29-1.06-4.65-.98-6.73.38-3.56,2.33-7,4.86-10.47,7.32-.89.63-1.34,1.52-1.28,2.61.19,3.12,3.72,5.02,6.42,3.47,1.12-.65,2.2-1.4,3.35-1.99,3.41-1.75,6.94-1.83,10.08.35,5.25,3.64,10.38,7.45,15.39,11.41,3.22,2.54,6.14,5.48,9.26,8.3ZM94.95,122.2c-.49.29-1.39.6-1.98,1.2-4.11,4.2-8.17,8.45-12.23,12.7-1.64,1.72-1.5,3.41.34,5.16,1.81,1.72,3.53,1.74,5.18.02,4.02-4.19,8.03-8.39,12.05-12.58,1.05-1.09,1.53-2.36.79-3.73-.79-1.46-1.97-2.57-4.15-2.78ZM86.49,114.73c-.44.25-1.31.52-1.88,1.09-3.14,3.18-6.24,6.42-9.3,9.68-1.51,1.61-1.27,3.35.58,5.07,1.72,1.6,3.39,1.61,4.92.02,3-3.12,5.99-6.26,9-9.36.99-1.01,1.56-2.09.89-3.49-.77-1.61-1.87-2.81-4.21-3.01ZM105.75,136.32c-.13-1.56-1.11-2.4-2.06-3.24-1.42-1.24-3.16-1.21-4.47.13-2.85,2.92-5.67,5.87-8.46,8.84-1.16,1.24-1.1,2.96.05,4.21.32.34.66.67,1.02.97,1.39,1.21,3.19,1.21,4.48-.11,2.8-2.87,5.58-5.76,8.3-8.69.53-.57.77-1.4,1.15-2.11ZM113.99,144.12c-.16-1.65-1.22-2.51-2.26-3.36-1.32-1.07-3.02-1-4.23.21-1.81,1.82-3.59,3.67-5.32,5.56-1.26,1.37-1.18,3.15.11,4.47.3.31.61.61.94.89,1.38,1.16,3.11,1.14,4.39-.15,1.78-1.79,3.55-3.61,5.23-5.49.52-.58.76-1.41,1.13-2.12Z"/>
</svg>