<?xml version="1.0" encoding="UTF-8"?>
<svg id="Layer_1" data-name="Layer 1" xmlns="http://www.w3.org/2000/svg" version="1.1" viewBox="0 0 240.94 240.94">
  <defs>
    <style>
      .cls-1 {
        fill: #266522;
        stroke-width: 0px;
      }
    </style>
  </defs>
  <path class="cls-1" d="M120.47,238.79C55.18,238.79,2.06,185.67,2.06,120.37S55.18,1.96,120.47,1.96s118.42,53.12,118.42,118.42-53.12,118.42-118.42,118.42ZM120.47,7.62C58.3,7.62,7.72,58.2,7.72,120.37s50.58,112.75,112.75,112.75,112.75-50.58,112.75-112.75S182.64,7.62,120.47,7.62Z"/>
  <g>
    <path class="cls-1" d="M77.52,171.64c-1.72-.7-2.36-1.98-2.33-3.83.08-4.63.02-9.27.03-13.9,0-2.26,1.16-3.42,3.44-3.43,1.35,0,2.7,0,4.13,0,0-.47,0-.82,0-1.17,0-12.07,0-24.15-.01-36.22,0-1.75.56-3.17,2.02-4.18.89-.62,1.89-.76,2.95-.76,5.02.01,10.03,0,15.05,0,.35,0,.69,0,1.13,0,0-.54,0-.97,0-1.41.04-2.6,1.8-4.46,4.39-4.64.32-.02.65-.02.97-.02,7.47,0,14.93,0,22.4,0,3.81,0,5.45,1.61,5.51,5.4,0,.18.02.35.04.67h1.03c4.84,0,9.68.12,14.52-.04,3.63-.12,5.63,2.08,5.59,5.54-.12,11.87-.05,23.73-.05,35.6,0,.35,0,.7,0,1.22h2.13c.56,0,1.12.03,1.68,0,1.85-.14,3.14.6,3.76,2.39v16.48c-.44,1.1-1.2,1.87-2.3,2.3h-86.08ZM134.18,150.42c0-.33,0-.56,0-.8,0-14.17,0-28.34,0-42.5,0-1.5-.5-1.99-2.04-1.99-7.67,0-15.34,0-23.02,0-1.74,0-2.17.44-2.17,2.22,0,14.02,0,28.04,0,42.06v1.02h27.23ZM129.69,159.56v9.03h14.92c.05-.08.1-.13.1-.18.01-2.3.03-4.6.02-6.91,0-.16-.14-.42-.28-.46-.93-.31-1.37-.92-1.16-1.89.17-.79.82-1.13,1.96-1.13,2.89,0,5.79,0,8.68,0,.97,0,1.95-.02,2.92.02.68.03,1.27.38,1.36,1.05.07.49-.14,1.08-.39,1.53-.15.28-.62.38-.92.54v7.39h5.9v-14.97h-84.52v14.98h5.95v-7.39c-1.18-.49-1.61-1.06-1.41-1.93.18-.81.75-1.19,1.54-1.2,3.98-.01,7.97-.02,11.95,0,.8,0,1.36.44,1.52,1.23.16.8-.2,1.44-.97,1.67-.53.16-.51.47-.51.86,0,2.04,0,4.07,0,6.11,0,.22.05.45.07.65h14.98v-9c-.51,0-.95.03-1.39,0-.98-.07-1.58-.69-1.54-1.58.03-.85.62-1.4,1.59-1.43.8-.02,1.59,0,2.39,0,6.11,0,12.22,0,18.33,0,1.18,0,1.8.52,1.82,1.46.02.97-.65,1.54-1.84,1.56-.35,0-.7,0-1.1,0ZM155.27,150.42c.02-.29.04-.52.04-.76,0-12.19,0-24.37,0-36.56,0-1.44-.48-1.92-1.9-1.92-5.13,0-10.27,0-15.4,0-.25,0-.51.04-.75.06v39.18h18.01ZM103.87,150.44v-39.26h-.92c-5.02,0-10.03,0-15.05,0-1.67,0-2.09.42-2.09,2.08,0,12.07,0,24.14,0,36.21,0,.31.03.62.04.97h18.01ZM93.29,168.57v-7.47h-5.94v7.47h5.94ZM153.78,161.09h-5.92v7.48h5.92v-7.48ZM118.98,168.59v-8.96h-4.39v8.96h4.39ZM126.55,168.59v-8.96h-4.4v8.96h4.4Z"/>
    <path class="cls-1" d="M165.9,97.05c-.49.65-.91,1.38-1.5,1.92-.62.57-.83,1.15-.61,1.94.08.28.11.58.15.87.17,1.18-.14,2.18-1.17,2.86-1.02.67-2.11.65-3.08-.03-.94-.65-1.73-.71-2.69-.02-.99.71-2.12.74-3.15.02-1.02-.71-1.37-1.73-1.11-2.95.03-.14,0-.3.06-.44.39-1.03,0-1.76-.76-2.47-.5-.46-.96-1.09-1.15-1.73-.46-1.55.54-3.14,2.18-3.31,1.46-.15,2.33-.7,2.81-2.12.36-1.06,1.32-1.59,2.44-1.59,1.12,0,2.08.51,2.45,1.58.48,1.41,1.34,2.05,2.82,2.11,1.19.05,1.78,1,2.3,1.94v1.42ZM158.35,93.43c-.5,2.3-1.99,3.16-4.21,3.19,1.99,1.33,2.45,3.02,1.66,5.21,1.71-1.44,3.34-1.48,5,.04-.07-1.15-.39-2.17-.12-2.99.28-.85,1.13-1.51,1.86-2.41-2.21.13-3.67-.72-4.18-3.04Z"/>
    <path class="cls-1" d="M113.83,95.7c.1-.67.29-1.52.34-2.37.02-.38-.15-.83-.38-1.14-.43-.56-.98-1.02-1.46-1.54-.84-.9-1.1-1.96-.72-3.11.38-1.15,1.22-1.99,2.44-2.02,2.03-.04,3.17-.96,3.81-2.87.38-1.14,1.43-1.7,2.66-1.72,1.26-.02,2.37.53,2.75,1.71.63,1.99,1.89,2.69,3.89,2.91,2.45.27,3.46,3.29,1.68,4.98-1.54,1.46-2.27,2.85-1.59,4.98.37,1.17-.2,2.27-1.25,2.99-1.05.71-2.24.83-3.24.1-1.52-1.11-2.78-.98-4.35,0-2.13,1.31-4.62-.29-4.55-2.91ZM126.7,88.84c-.07-.11-.14-.21-.22-.32-.92-.16-1.83-.38-2.76-.48-.96-.1-1.56-.55-1.92-1.44-.35-.84-.77-1.66-1.23-2.64-.52,1.08-.97,1.94-1.36,2.83-.33.75-.88,1.13-1.69,1.23-.95.12-1.89.29-3.02.47.76.8,1.36,1.53,2.05,2.14.8.72.97,1.55.75,2.55-.19.89-.3,1.79-.46,2.8.88-.46,1.7-.82,2.43-1.29.91-.59,1.73-.55,2.63.03.7.45,1.46.81,2.32,1.28-.17-1.22-.31-2.27-.48-3.31-.11-.73.06-1.34.63-1.83.78-.67,1.55-1.35,2.33-2.02Z"/>
    <path class="cls-1" d="M93.99,97.24c.97-1.75-.1-3.11-1.49-4.59-1.52-1.61-.42-4.35,1.82-4.55,1.73-.16,2.69-.83,3.24-2.45.38-1.12,1.38-1.69,2.57-1.69,1.23,0,2.27.57,2.63,1.73.52,1.64,1.54,2.2,3.19,2.39,2.42.28,3.42,3.13,1.66,4.8-1.38,1.31-1.75,2.57-1.34,4.4.49,2.19-1.98,4.09-3.93,2.98-1.6-.91-2.78-.93-4.37,0-1.86,1.08-4.05-.52-4-3.03ZM97.06,97.3c1.09-.48,2.07-1.26,3.06-1.26,1.01,0,2.03.76,3.12,1.22-.11-.7-.18-1.37-.32-2.02-.22-1-.08-1.84.75-2.55.55-.47,1.01-1.04,1.63-1.68-.93-.14-1.68-.27-2.43-.37-.8-.11-1.36-.48-1.67-1.25-.3-.74-.68-1.45-1.03-2.18-.07-.04-.15-.09-.22-.13-.37,2.9-2.11,4.03-4.92,3.8-.04.15-.07.3-.11.45.64.52,1.28,1.03,1.9,1.57.61.53.81,1.18.63,1.99-.17.77-.25,1.56-.39,2.42Z"/>
    <path class="cls-1" d="M149.49,91.08c-.42.71-.7,1.58-1.3,2.09-1.21,1.04-1.62,2.13-1.14,3.7.37,1.21,0,2.36-1.08,3.14-1.11.8-2.31.8-3.39.02-1.13-.83-2.1-.81-3.23,0-1.04.75-2.22.8-3.31.03-1.11-.78-1.52-1.89-1.15-3.18.43-1.51.14-2.68-1.15-3.69-1.03-.81-1.38-1.99-.9-3.27.46-1.23,1.43-1.9,2.72-1.91,1.52,0,2.17-.85,2.69-2.13.66-1.65,2.18-2.34,3.64-1.73.59.24,1.07.78,1.53,1.25.25.26.4.66.51,1.02.29,1,.88,1.52,1.97,1.49.43-.01.88.12,1.3.25,1.27.38,2.06,1.47,2.05,2.78.08.04.15.09.23.13ZM137.95,97.35c.61-.33,1.2-.61,1.73-.96.87-.57,1.69-.58,2.56,0,.54.36,1.13.63,1.83,1.01-.14-.93-.19-1.67-.37-2.38-.23-.91.03-1.6.69-2.22.56-.53,1.08-1.11,1.73-1.78-.89-.14-1.59-.27-2.28-.35-.9-.1-1.54-.48-1.88-1.36-.26-.67-.61-1.31-.92-1.96-.09-.08-.18-.16-.27-.23-.38,2.94-2.17,3.98-4.96,3.76.94,1.11,2.02,1.89,2.35,2.92.33,1.03-.1,2.3-.2,3.56Z"/>
    <path class="cls-1" d="M77.13,102.24c.01-.16-.02-.42.06-.63.52-1.36,0-2.32-1.04-3.2-.87-.74-1.16-1.76-.78-2.89.38-1.11,1.18-1.73,2.34-1.88.06,0,.12-.03.17-.03,1.22.03,1.91-.56,2.29-1.72.4-1.2,1.33-1.89,2.62-1.88,1.29,0,2.19.72,2.6,1.91.38,1.11,1.03,1.64,2.22,1.69,1.25.05,2.19.7,2.57,1.95.36,1.19,0,2.25-.94,3.02-.98.8-1.29,1.69-.93,2.92.36,1.24.03,2.36-1.07,3.12-1.1.76-2.29.67-3.3-.12-1.04-.82-1.81-.26-2.69.21-1.99,1.06-4.15-.21-4.13-2.46ZM86.96,96.57c-2.27.07-3.64-.92-4.21-3.13-.49,2.33-1.99,3.13-4.19,3.17,1.97,1.3,2.42,3.01,1.71,5.2,1.72-1.52,3.35-1.36,5.06,0-.85-2.21-.25-3.87,1.63-5.23Z"/>
    <path class="cls-1" d="M114.5,132.32c-.47,0-.94,0-1.42,0-1.8-.03-3.05-1.24-3.11-3.05-.03-.97-.03-1.95,0-2.92.06-1.85,1.31-3.05,3.18-3.08.94-.01,1.89-.02,2.83,0,1.73.03,2.95,1.19,3.04,2.92.05,1.03.05,2.07,0,3.1-.07,1.84-1.28,3-3.11,3.03-.47,0-.94,0-1.42,0ZM113.03,129.23h2.94v-2.9h-2.94v2.9Z"/>
    <path class="cls-1" d="M126.59,132.32c-.5,0-1,.01-1.5,0-1.68-.05-2.9-1.2-2.98-2.88-.05-1.09-.05-2.18,0-3.27.08-1.69,1.3-2.85,2.98-2.89,1-.02,2.01-.02,3.01,0,1.71.03,2.96,1.21,3.05,2.93.06,1.06.06,2.13,0,3.19-.09,1.76-1.35,2.91-3.13,2.93-.47,0-.94,0-1.42,0ZM128.09,129.26v-2.93h-2.92v2.93h2.92Z"/>
    <path class="cls-1" d="M114.45,118.71c-.47,0-.94.01-1.42,0-1.77-.05-2.99-1.24-3.06-3.01-.04-1-.04-2.01,0-3.01.07-1.76,1.3-2.99,3.05-3.04,1-.03,2.01-.03,3.01,0,1.72.06,2.92,1.24,2.99,2.98.04,1.03.05,2.07,0,3.1-.07,1.79-1.27,2.93-3.07,2.98-.5.01-1,0-1.5,0ZM113.02,115.62h2.94v-2.88h-2.94v2.88Z"/>
    <path class="cls-1" d="M126.62,118.69c-.59,0-1.18.03-1.77,0-1.43-.09-2.61-1.15-2.71-2.56-.09-1.29-.09-2.6,0-3.89.1-1.43,1.32-2.5,2.81-2.58,1.09-.05,2.18-.05,3.27,0,1.65.07,2.84,1.29,2.91,2.98.05,1.03.05,2.07,0,3.1-.08,1.76-1.32,2.92-3.1,2.97-.47.01-.94,0-1.42,0,0,0,0,0,0-.01ZM125.17,112.71v2.93h2.9v-2.93h-2.9Z"/>
    <path class="cls-1" d="M126.63,145.94c-.44,0-.89,0-1.33,0-1.94-.02-3.17-1.2-3.22-3.12-.03-1-.04-2.01,0-3.01.08-1.74,1.28-2.89,3.03-2.93.97-.02,1.95-.02,2.92,0,1.78.03,3.02,1.2,3.1,2.96.05,1.03.05,2.07,0,3.1-.08,1.76-1.33,2.95-3.09,2.99-.47.01-.94,0-1.42,0ZM128.09,139.95h-2.91v2.91h2.91v-2.91Z"/>
    <path class="cls-1" d="M114.55,136.88c.5,0,1-.01,1.5,0,1.69.05,2.89,1.19,2.97,2.89.05,1.09.05,2.19,0,3.27-.09,1.68-1.3,2.83-2.99,2.88-.97.03-1.95.02-2.92,0-1.81-.03-3.06-1.24-3.13-3.04-.04-.97-.03-1.95,0-2.92.05-1.86,1.29-3.06,3.16-3.09.47,0,.94,0,1.42,0h0ZM115.94,142.89v-2.94h-2.88v2.94h2.88Z"/>
    <path class="cls-1" d="M146.26,135.34c-1,0-2,.02-3,0-1.76-.04-3-1.27-3.03-3.01-.02-1.03-.03-2.06,0-3.09.05-1.64,1.29-2.91,2.93-2.94,2.06-.04,4.12-.04,6.19,0,1.65.03,2.89,1.28,2.93,2.93.03,1.09.04,2.18,0,3.27-.06,1.56-1.27,2.78-2.83,2.84-1.06.04-2.12,0-3.18,0,0,0,0,0,0,0ZM143.25,132.26h5.95v-2.89h-5.95v2.89Z"/>
    <path class="cls-1" d="M146.3,114.2c1,0,2-.02,3,0,1.72.04,2.94,1.26,2.98,2.97.03,1.03.03,2.06,0,3.09-.04,1.66-1.24,2.94-2.89,2.98-2.09.05-4.18.05-6.27,0-1.64-.04-2.86-1.33-2.9-2.98-.02-1.03-.02-2.06,0-3.09.04-1.7,1.27-2.92,2.98-2.97,1.03-.03,2.06,0,3.09,0ZM143.25,120.17h5.95v-2.88h-5.95v2.88Z"/>
    <path class="cls-1" d="M146.26,147.44c-.97,0-1.94.02-2.92,0-1.93-.05-3.11-1.26-3.13-3.19,0-.91-.01-1.83,0-2.74.02-1.77,1.19-3.06,2.94-3.12,2.06-.06,4.12-.06,6.18,0,1.72.05,2.9,1.31,2.94,3.02.02,1,.02,2,0,3-.04,1.73-1.19,2.94-2.93,3.02-1.03.05-2.06,0-3.09,0,0,0,0,0,0,0ZM149.22,141.45h-5.95v2.91h5.95v-2.91Z"/>
    <path class="cls-1" d="M94.85,135.33c-1.03,0-2.06.02-3.09,0-1.65-.05-2.87-1.28-2.92-2.94-.03-1.06-.03-2.12,0-3.18.05-1.64,1.29-2.89,2.94-2.92,2.06-.03,4.12-.04,6.19,0,1.64.03,2.88,1.3,2.92,2.95.03,1.06.03,2.12,0,3.18-.05,1.64-1.3,2.86-2.95,2.91-1.03.03-2.06,0-3.09,0ZM97.84,129.36h-5.92v2.92h5.92v-2.92Z"/>
    <path class="cls-1" d="M94.87,147.44c-1,0-2,.03-3,0-1.84-.07-3-1.27-3.03-3.1-.01-.97-.02-1.94,0-2.92.04-1.71,1.21-2.98,2.93-3.03,2.06-.06,4.12-.06,6.18,0,1.75.05,2.93,1.34,2.95,3.11.01,1,.02,2,0,3-.05,1.59-1.18,2.81-2.76,2.91-1.09.07-2.18.01-3.27.01v.02ZM97.84,141.45h-5.91v2.91h5.91v-2.91Z"/>
    <path class="cls-1" d="M94.92,114.21c1,0,2-.02,3,0,1.71.04,2.94,1.27,2.98,2.97.02,1.03.03,2.06,0,3.09-.04,1.65-1.26,2.93-2.9,2.97-2.09.05-4.18.05-6.27,0-1.61-.04-2.83-1.3-2.88-2.89-.03-1.09-.03-2.18,0-3.27.05-1.61,1.27-2.82,2.89-2.87,1.06-.03,2.12,0,3.18,0ZM91.91,117.27v2.91h5.91v-2.91h-5.91Z"/>
  </g>
</svg>