<?xml version="1.0" encoding="UTF-8"?>
<svg id="Layer_1" data-name="Layer 1" xmlns="http://www.w3.org/2000/svg" version="1.1" viewBox="0 0 240.94 240.94">
  <defs>
    <style>
      .cls-1 {
        fill: #266522;
        stroke-width: 0px;
      }
    </style>
  </defs>
  <path class="cls-1" d="M120.47,238.79C55.18,238.79,2.06,185.67,2.06,120.37S55.18,1.96,120.47,1.96s118.42,53.12,118.42,118.42-53.12,118.42-118.42,118.42ZM120.47,7.62C58.3,7.62,7.72,58.2,7.72,120.37s50.58,112.75,112.75,112.75,112.75-50.58,112.75-112.75S182.64,7.62,120.47,7.62Z"/>
  <path class="cls-1" d="M130.67,169.66h-3.84c-.18-.06-.35-.14-.54-.17-5.3-.68-9.67-3.08-12.93-7.3-1.39-1.8-2.39-3.89-3.66-5.99-2.23.53-4.71,1.11-7.19,1.7-.08.63-.12,1.2-.22,1.77-.62,3.69-3.74,6.4-7.71,6.7-3.35.25-6.92-2.18-8.01-5.45-1.38-4.14.42-8.36,4.35-10.2,3.73-1.75,8.17-.31,10.39,3.39.27.46.51.61,1.06.46,2.04-.52,4.1-.98,6.15-1.47.24-.06.46-.18.71-.28-.42-2.98-.19-5.86.69-8.69.88-2.82,2.37-5.29,4.37-7.55-2.17-2.38-4.29-4.72-6.42-7.07-6.29,4.48-12.96,5.22-20.06,2.34-.89,1.6-1.72,3.14-2.61,4.66-.32.54-.24.87.18,1.32,3.39,3.65,3.01,8.87-.85,12.01-2.38,1.94-5.99,2.3-8.67.87-2.98-1.59-4.78-4.68-4.51-7.75.31-3.46,2.46-6.28,5.52-7.28,1.69-.55,3.38-.56,5.11-.06,1-1.81,1.98-3.56,2.97-5.35-5.74-4.25-8.86-9.82-8.63-17,.23-7.17,3.73-12.52,9.69-16.38-1.53-3.21-3.02-6.34-4.51-9.48-.26.05-.41.09-.57.11-3.35.49-6.1-.61-8.05-3.34-1.84-2.57-2.07-5.42-.68-8.27,1.51-3.07,4.1-4.62,7.49-4.61,3.32.01,6.31,2.18,7.43,5.16,1.23,3.26.49,6.61-2.05,8.96-.51.47-.54.8-.25,1.38,1.22,2.5,2.4,5.02,3.6,7.53.19.39.38.78.53,1.07,10.56-2.98,18.62.21,24.46,9.3,5.96-2.53,11.92-5.05,17.93-7.6-1.22-3.81-1.32-7.56-.25-11.36-1.68-.62-3.25-1.23-4.85-1.76-.21-.07-.63.15-.8.36-3.08,3.9-8.16,4.45-11.96,1.27-2.76-2.31-3.6-6.61-1.91-9.79,1.87-3.52,5.75-5.27,9.36-4.24,3.92,1.12,6.21,4.32,6.1,8.47,0,.27.18.72.39.8,1.56.63,3.15,1.19,4.76,1.78.19-.35.33-.63.49-.9,3.71-6.39,9.17-10.11,16.62-10.4,9.46-.38,17.52,5.84,19.82,15.03.22.86.38,1.73.57,2.6v3.84c-.07.31-.16.61-.21.92-1.49,10.44-10.98,17.71-20.88,16.79-1.23-.11-2.45-.32-3.73-.49-2.65,7.36-5.3,14.71-7.97,22.12,2.93,1.41,5.33,3.33,7.28,5.76.17-.07.26-.1.34-.15,2.87-1.86,5.73-3.74,8.62-5.57.6-.38.69-.73.49-1.4-.97-3.28.44-7.01,3.32-8.91,2.94-1.94,6.88-1.76,9.59.39,1.8,1.43,2.71,3.34,3.15,5.52v1.92c-.04.05-.1.1-.11.15-.97,6.44-8.62,9.22-13.46,4.95-.43-.38-.7-.22-1.08.02-2.11,1.39-4.23,2.75-6.35,4.13-.88.57-1.75,1.15-2.65,1.74.2.44.37.82.55,1.19,4.74,10.27-.38,22.63-11.02,26.49-1.57.57-3.25.86-4.88,1.29ZM141.8,108.81c-4.05-1.92-7.07-4.82-9.21-8.69-6.03,2.56-11.99,5.08-17.98,7.62,2.09,7.34.65,13.84-4.32,19.57,2.16,2.37,4.28,4.71,6.43,7.06,5.2-3.81,10.87-4.92,17.07-3.38,2.68-7.43,5.32-14.76,8-22.19ZM141.01,160.64c5.39-5.9,5.74-16.03-.98-22.45-6.83-6.52-17.42-6.05-23.65,1-6.09,6.9-4.7,16.62-.04,21.33,1.28-3,3.42-5.14,6.39-6.43-3.04-4.6-2.9-8.81.35-11.72,3.19-2.86,7.67-2.94,10.93-.17,1.49,1.27,2.38,2.9,2.69,4.84.43,2.67-.39,4.97-2.18,7.03,3.04,1.34,5.18,3.48,6.49,6.58ZM162.36,101.6c6.08-6.74,5.08-17.65-2.01-23.35-7.45-5.99-18.11-4.54-23.72,3.27-5.14,7.15-2.96,16.24.92,19.81.89-1.21,1.66-2.57,2.73-3.64,1.08-1.08,2.45-1.88,3.69-2.8-3.59-4.28-2.14-9.06.35-11.44,2.91-2.79,7.5-3.07,10.56-.7,1.66,1.29,2.76,2.94,3.15,5,.53,2.75-.28,5.16-2.15,7.3,3.06,1.33,5.18,3.49,6.5,6.56ZM89.97,118.01c-3.63-4.28-2.42-9.11.23-11.62,2.99-2.83,7.52-3.05,10.63-.6,1.63,1.28,2.69,2.93,3.06,4.95.49,2.7-.24,5.12-2.16,7.25,3.08,1.37,5.22,3.54,6.5,6.57,5.5-5.99,5.76-16.61-1.69-23.11-6.84-5.96-17.71-4.94-23.4,2.18-5.78,7.23-3.83,16.77.43,20.8,1.26-2.97,3.37-5.09,6.4-6.42ZM105.47,127.15c-.78-3.66-3.47-6.24-7.1-6.57-1.8-.17-3.67-.19-5.45.08-3.25.49-5.35,2.49-6.46,5.59-.24.67-.08,1.01.5,1.39,5.57,3.7,12.74,3.54,18.51-.49ZM128.67,166.39c3.31-.05,6.35-.97,9.11-2.82.45-.3.46-.58.35-1.03-.82-3.19-3.92-5.78-7.22-5.94-1.5-.07-3.01-.07-4.51,0-3.28.16-6.34,2.68-7.21,5.84-.15.55-.06.86.43,1.18,2.75,1.79,5.76,2.71,9.04,2.76ZM150.02,97.6c-.83,0-1.66-.05-2.49,0-3.17.2-6.29,2.84-6.99,5.94-.07.29.14.81.38.99,5.17,3.73,13.14,3.71,18.2-.03.22-.17.4-.64.33-.91-.43-1.81-1.46-3.24-2.91-4.38-1.93-1.52-4.18-1.81-6.53-1.62ZM118.84,84.37c2.7,0,4.9-2.17,4.92-4.86.02-2.71-2.24-4.98-4.94-4.95-2.68.03-4.87,2.24-4.86,4.93,0,2.69,2.19,4.88,4.89,4.88ZM149.97,94.21c2.7.02,4.9-2.14,4.92-4.84.02-2.73-2.21-4.99-4.91-4.97-2.67.01-4.89,2.24-4.89,4.91,0,2.68,2.19,4.88,4.88,4.9ZM79.53,138.53c-2.69-.01-4.91,2.16-4.94,4.85-.04,2.7,2.22,4.97,4.93,4.96,2.69-.01,4.87-2.21,4.88-4.9,0-2.7-2.17-4.89-4.87-4.9ZM89.36,158.23c.02,2.67,2.26,4.89,4.92,4.88,2.66-.02,4.88-2.25,4.88-4.92,0-2.73-2.23-4.93-4.97-4.89-2.7.03-4.85,2.23-4.83,4.94ZM84.4,79.45c-.01-2.68-2.23-4.89-4.9-4.89-2.66,0-4.9,2.24-4.91,4.9,0,2.71,2.24,4.93,4.97,4.91,2.7-.02,4.85-2.22,4.84-4.93ZM161.45,133.56c2.69.01,4.9-2.16,4.94-4.84.04-2.69-2.24-4.98-4.94-4.97-2.68.02-4.87,2.23-4.87,4.91,0,2.7,2.17,4.88,4.87,4.9ZM123.75,148.38c.02,2.68,2.25,4.89,4.91,4.88,2.68-.01,4.88-2.22,4.89-4.91,0-2.73-2.24-4.96-4.96-4.91-2.71.05-4.86,2.24-4.84,4.94ZM95.86,107.38c-2.68,0-4.9,2.2-4.91,4.88-.02,2.64,2.22,4.9,4.88,4.93,2.71.03,4.95-2.22,4.93-4.95-.02-2.71-2.19-4.87-4.9-4.86Z"/>
</svg>