<?xml version="1.0" encoding="UTF-8"?>
<svg id="Layer_1" data-name="Layer 1" xmlns="http://www.w3.org/2000/svg" version="1.1" viewBox="0 0 89.11 89.11">
  <defs>
    <style>
      .cls-1 {
        fill: #fff;
        stroke-width: 0px;
      }
    </style>
  </defs>
  <path class="cls-1" d="M19.95,85.71h-1.93c-.07-.04-.13-.11-.2-.12-3.53-.91-5.36-3.26-5.36-6.91,0-2.84.02-5.68-.02-8.52,0-.42-.17-.9-.42-1.23-7.25-9.79-9.8-20.69-7.51-32.63C8.76,14.19,30.88-.4,52.92,4.27c22.62,4.8,36.85,27.3,31.28,49.67-5.83,23.38-31.09,37.67-54.9,28.11-.54-.22-.96-.21-1.5.05-2.6,1.24-5.23,2.42-7.84,3.62ZM17.5,74.6c0,1.74,0,3.48,0,5.22,0,1.11.45,1.39,1.45.89,2.32-1.15,4.67-2.27,6.95-3.49,1.36-.73,2.59-.72,4-.09,7.18,3.2,14.66,4.02,22.34,2.33,18.93-4.16,31.2-22.56,27.81-41.63-3.04-17.13-18.02-29.69-35.42-29.69-8.67,0-16.44,2.69-23.02,8.33-10.51,9-14.73,20.45-12.57,34.13.95,6.01,3.49,11.37,7.32,16.09.81,1,1.19,2.06,1.15,3.35-.06,1.52-.01,3.04-.01,4.56Z"/>
  <path class="cls-1" d="M65.29,34.55c-.17.41-.27.8-.47,1.14-3.51,6.09-7.03,12.19-10.55,18.27-.73,1.27-1.69,1.5-2.97.74-3.74-2.24-7.48-4.49-11.22-6.73-1.31-.79-1.75-.76-2.96.17-3.34,2.55-6.68,5.1-10.02,7.65-1.22.92-2.8.37-3.01-1.09-.06-.45.09-1.04.35-1.42,4.4-6.32,8.84-12.63,13.28-18.93.74-1.06,1.81-1.16,2.93-.33,2.79,2.08,5.57,4.17,8.35,6.26,1.15.86,1.79.87,2.97.04,3.37-2.38,6.73-4.76,10.1-7.13,1.06-.74,2.11-.65,2.76.27.22.31.32.72.48,1.1Z"/>
</svg>