<?xml version="1.0" encoding="UTF-8"?>
<svg id="Layer_1" data-name="Layer 1" xmlns="http://www.w3.org/2000/svg" version="1.1" viewBox="0 0 89.11 89.11">
  <defs>
    <style>
      .cls-1 {
        fill: #fff;
        stroke-width: 0px;
      }
    </style>
  </defs>
  <path class="cls-1" d="M41.99,3.4c1.7,0,3.41,0,5.11,0,.2.04.41.11.61.13,6.36.48,12.32,2.3,17.75,5.65,10.56,6.49,17.04,15.84,19.32,28.05.28,1.48.42,2.99.63,4.49v5.11c-.17,1.34-.3,2.69-.53,4.02-1.86,10.75-7.1,19.51-15.81,26.07-8.89,6.7-18.97,9.27-29.99,7.84-8.9-1.15-16.64-4.91-23.02-11.23C6.77,64.32,2.71,53.1,3.9,40.09c.8-8.68,4.21-16.32,10-22.84,6.34-7.15,14.24-11.59,23.68-13.24,1.46-.25,2.94-.41,4.41-.62ZM44.54,80.35c19.77.01,36.06-16.14,36.08-35.77.02-20.17-15.99-36.35-36.01-36.4-19.95-.04-36.16,16.14-36.15,36.08,0,19.91,16.17,36.07,36.09,36.08Z"/>
  <path class="cls-1" d="M57.5,66.32c-3.21-.11-6.07-.81-8.85-1.8-12.91-4.6-21.42-13.45-25.36-26.6-.59-1.97-.88-4.05-1.06-6.1-.17-2.05.65-3.84,2.11-5.32.69-.7,1.34-1.44,2.02-2.15,2.59-2.68,6.15-2.81,8.9-.32.89.8,1.76,1.63,2.59,2.48,2.33,2.37,2.44,5.88.25,8.37-1.39,1.58-2.8,3.12-4.97,3.71-.94.25-1.06.85-.55,1.92,1.27,2.65,2.83,5.11,4.76,7.34,3.17,3.67,7.02,6.39,11.45,8.32,1.12.49,1.5.36,1.99-.76.85-1.93,2.22-3.42,3.91-4.64,2.23-1.61,4.96-1.66,7.1.06,1.32,1.06,2.59,2.23,3.68,3.52,1.6,1.88,1.97,4.16.82,6.34-1.42,2.67-3.46,4.79-6.64,5.37-.78.14-1.58.19-2.16.26Z"/>
</svg>