<?xml version="1.0" encoding="UTF-8"?>
<svg id="Layer_1" data-name="Layer 1" xmlns="http://www.w3.org/2000/svg" version="1.1" viewBox="0 0 89.11 89.11">
  <defs>
    <style>
      .cls-1 {
        fill: #fff;
        stroke-width: 0px;
      }
    </style>
  </defs>
  <path class="cls-1" d="M41.99,3.4c1.7,0,3.41,0,5.11,0,.2.04.41.11.61.13,6.36.48,12.32,2.3,17.75,5.65,10.56,6.49,17.04,15.84,19.32,28.05.28,1.48.42,2.99.63,4.49v5.11c-.17,1.34-.3,2.69-.53,4.02-1.86,10.75-7.1,19.51-15.81,26.07-8.89,6.7-18.97,9.27-29.99,7.84-8.9-1.15-16.64-4.91-23.02-11.23C6.77,64.32,2.71,53.1,3.9,40.09c.8-8.68,4.21-16.32,10-22.84,6.34-7.15,14.24-11.59,23.68-13.24,1.46-.25,2.94-.41,4.41-.62ZM44.54,80.35c19.77.01,36.06-16.14,36.08-35.77.02-20.17-15.99-36.35-36.01-36.4-19.95-.04-36.16,16.14-36.15,36.08,0,19.91,16.17,36.07,36.09,36.08Z"/>
  <g>
    <path class="cls-1" d="M15.73,51.96l9.88-14.22v-.12h-8.96v-3.88h15.06v2.71l-9.67,14.04v.12h9.82v3.88H15.73v-2.52Z"/>
    <path class="cls-1" d="M43.34,54.48l-.28-1.51h-.09c-.99,1.2-2.53,1.85-4.31,1.85-3.05,0-4.86-2.22-4.86-4.62,0-3.91,3.51-5.79,8.84-5.76v-.22c0-.8-.43-1.94-2.74-1.94-1.54,0-3.17.52-4.16,1.14l-.86-3.02c1.05-.59,3.11-1.32,5.85-1.32,5.02,0,6.62,2.96,6.62,6.5v5.23c0,1.45.06,2.83.22,3.66h-4.22ZM42.78,47.37c-2.46-.03-4.37.55-4.37,2.37,0,1.2.8,1.79,1.85,1.79,1.17,0,2.12-.77,2.43-1.72.06-.25.09-.52.09-.8v-1.63Z"/>
    <path class="cls-1" d="M51.03,32.62h4.68v21.86h-4.68v-21.86Z"/>
    <path class="cls-1" d="M74.37,46.78c0,5.51-3.91,8.04-7.94,8.04-4.4,0-7.79-2.89-7.79-7.76s3.2-7.97,8.04-7.97,7.7,3.17,7.7,7.7ZM63.47,46.94c0,2.59,1.08,4.53,3.08,4.53,1.82,0,2.99-1.82,2.99-4.53,0-2.25-.86-4.53-2.99-4.53-2.25,0-3.08,2.31-3.08,4.53Z"/>
  </g>
</svg>