<svg width="130.816406" height="11.563782" viewBox="0 0 130.816 11.5638" fill="none" xmlns="http://www.w3.org/2000/svg" xmlns:xlink="http://www.w3.org/1999/xlink">
	<g style="mix-blend-mode:normal">
		<rect id="長方形 42" width="1.270529" height="8.895046" fill="#000000" fill-opacity="1.000000"/>
	</g>
	<g style="mix-blend-mode:normal">
		<path id="パス 40" d="M10.46 7.87C10.3 8.09 10.08 8.28 9.83 8.45C9.38 8.74 8.76 9.02 7.86 9.02C6.08 9.02 4.68 7.62 4.68 5.84C4.68 4.06 6.08 2.66 7.8 2.66C9.52 2.66 10.78 3.92 10.78 5.65C10.78 5.84 10.76 5.99 10.74 6.11L10.72 6.29L6.02 6.29C6.16 7.11 6.89 7.81 7.92 7.81C8.47 7.81 8.91 7.61 9.22 7.4C9.4 7.29 9.56 7.15 9.7 6.98L10.46 7.87ZM9.45 5.21C9.26 4.38 8.7 3.81 7.8 3.81C6.83 3.81 6.27 4.38 6.02 5.21L9.45 5.21Z" fill="#000000" fill-opacity="1.000000" fill-rule="nonzero"/>
	</g>
	<g style="mix-blend-mode:normal">
		<path id="パス 41" d="M14.22 7.05C14.35 7.21 14.49 7.35 14.66 7.47C14.95 7.67 15.32 7.87 15.81 7.87C16.52 7.87 16.89 7.5 16.89 7.11C16.89 6.09 13.65 6.62 13.65 4.44C13.65 3.49 14.49 2.66 15.88 2.66C16.6 2.66 17.15 2.88 17.5 3.08C17.72 3.2 17.9 3.34 18.04 3.49L17.21 4.32C17.11 4.23 16.99 4.14 16.85 4.06C16.61 3.92 16.28 3.81 15.88 3.81C15.23 3.81 14.92 4.13 14.92 4.44C14.92 5.46 18.16 4.95 18.16 7.11C18.16 8.13 17.29 9.02 15.81 9.02C15 9.02 14.41 8.74 14.01 8.45C13.77 8.28 13.56 8.09 13.4 7.87L14.22 7.05Z" fill="#000000" fill-opacity="1.000000" fill-rule="nonzero"/>
	</g>
	<g style="mix-blend-mode:normal">
		<path id="パス 42" d="M30.8 8C30.68 8.19 30.51 8.36 30.31 8.51C29.97 8.76 29.43 9.02 28.71 9.02C27.18 9.02 25.85 7.68 25.85 5.84C25.85 4 27.18 2.66 28.71 2.66C29.43 2.66 29.97 2.92 30.31 3.17C30.51 3.32 30.68 3.49 30.8 3.68L30.8 2.79L32.08 2.79L32.08 11.56L30.8 11.56L30.8 8ZM30.8 5.84C30.8 4.68 29.98 3.87 28.96 3.87C27.94 3.87 27.12 4.68 27.12 5.84C27.12 7 27.94 7.81 28.96 7.81C29.98 7.81 30.8 7 30.8 5.84Z" fill="#000000" fill-opacity="1.000000" fill-rule="nonzero"/>
	</g>
	<g style="mix-blend-mode:normal">
		<path id="パス 43" d="M35.48 2.79L36.75 2.79L36.75 6.35C36.75 7.25 37.32 7.81 38.15 7.81C39.1 7.81 39.8 7.11 39.8 6.09L39.8 2.79L41.07 2.79L41.07 8.89L39.8 8.89L39.8 8C39.66 8.19 39.51 8.36 39.32 8.51C39 8.76 38.54 9.02 37.89 9.02C36.5 9.02 35.48 8.01 35.48 6.35L35.48 2.79Z" fill="#000000" fill-opacity="1.000000" fill-rule="nonzero"/>
	</g>
	<g style="mix-blend-mode:normal">
		<path id="パス 44" d="M48.42 8C48.3 8.19 48.13 8.36 47.94 8.51C47.6 8.76 47.11 9.02 46.45 9.02C45.23 9.02 44.42 8.19 44.42 7.24C44.42 6.22 45.12 5.52 46.2 5.33L48.42 4.95C48.42 4.3 47.91 3.81 47.15 3.81C46.66 3.81 46.29 4.02 46 4.23C45.83 4.34 45.69 4.48 45.57 4.63L44.74 3.81C44.9 3.59 45.11 3.4 45.35 3.24C45.75 2.94 46.34 2.66 47.15 2.66C48.68 2.66 49.69 3.68 49.69 5.01L49.69 8.89L48.42 8.89L48.42 8ZM48.42 5.97L46.65 6.29C46 6.4 45.69 6.72 45.69 7.11C45.69 7.56 46.06 7.94 46.71 7.94C47.66 7.94 48.42 7.17 48.42 6.16L48.42 5.97Z" fill="#000000" fill-opacity="1.000000" fill-rule="nonzero"/>
	</g>
	<g style="mix-blend-mode:normal">
		<path id="パス 45" d="M53.68 4L52.54 4L52.54 2.79L53.24 2.79C53.63 2.79 53.81 2.6 53.81 2.09L53.81 0.76L54.95 0.76L54.95 2.79L56.35 2.79L56.35 4L54.95 4L54.95 6.86C54.95 7.49 55.25 7.81 55.84 7.81C56.03 7.81 56.2 7.77 56.34 7.72L56.54 7.62L56.54 8.83L56.28 8.93C56.11 8.98 55.88 9.02 55.59 9.02C54.37 9.02 53.68 8.32 53.68 6.98L53.68 4Z" fill="#000000" fill-opacity="1.000000" fill-rule="nonzero"/>
	</g>
	<g style="mix-blend-mode:normal">
		<path id="パス 46" d="M59.91 2.79L61.18 2.79L61.18 3.62C61.32 3.45 61.47 3.29 61.65 3.15C61.95 2.91 62.41 2.66 63.02 2.66L63.34 2.66L63.34 4L63.17 3.97C63.07 3.96 62.97 3.93 62.83 3.93C61.95 3.93 61.18 4.7 61.18 5.78L61.18 8.89L59.91 8.89L59.91 2.79Z" fill="#000000" fill-opacity="1.000000" fill-rule="nonzero"/>
	</g>
	<g style="mix-blend-mode:normal">
		<path id="パス 47" d="M71.53 7.87C71.37 8.09 71.15 8.28 70.9 8.45C70.45 8.74 69.83 9.02 68.93 9.02C67.15 9.02 65.75 7.62 65.75 5.84C65.75 4.06 67.15 2.66 68.87 2.66C70.59 2.66 71.85 3.92 71.85 5.65C71.85 5.84 71.83 5.99 71.81 6.11L71.79 6.29L67.09 6.29C67.23 7.11 67.96 7.81 68.99 7.81C69.54 7.81 69.99 7.61 70.29 7.4C70.47 7.29 70.63 7.15 70.77 6.98L71.53 7.87ZM70.52 5.21C70.33 4.38 69.77 3.81 68.87 3.81C67.9 3.81 67.34 4.38 67.09 5.21L70.52 5.21Z" fill="#000000" fill-opacity="1.000000" fill-rule="nonzero"/>
	</g>
	<g style="mix-blend-mode:normal">
		<path id="パス 48" d="M80.24 7.05C80.36 7.21 80.5 7.35 80.67 7.47C80.96 7.67 81.33 7.87 81.83 7.87C82.54 7.87 82.91 7.5 82.91 7.11C82.91 6.09 79.66 6.62 79.66 4.44C79.66 3.49 80.5 2.66 81.89 2.66C82.61 2.66 83.16 2.88 83.51 3.08C83.73 3.2 83.91 3.34 84.05 3.49L83.22 4.32C83.12 4.23 83.01 4.14 82.87 4.06C82.63 3.92 82.3 3.81 81.89 3.81C81.24 3.81 80.94 4.13 80.94 4.44C80.94 5.46 84.18 4.95 84.18 7.11C84.18 8.13 83.3 9.02 81.83 9.02C81.01 9.02 80.43 8.74 80.02 8.45C79.78 8.28 79.58 8.09 79.41 7.87L80.24 7.05Z" fill="#000000" fill-opacity="1.000000" fill-rule="nonzero"/>
	</g>
	<g style="mix-blend-mode:normal">
		<path id="パス 49" d="M90.92 8C90.79 8.19 90.63 8.36 90.44 8.51C90.1 8.76 89.61 9.02 88.95 9.02C87.73 9.02 86.92 8.19 86.92 7.24C86.92 6.22 87.62 5.52 88.7 5.33L90.92 4.95C90.92 4.3 90.41 3.81 89.65 3.81C89.16 3.81 88.79 4.02 88.5 4.23C88.33 4.34 88.19 4.48 88.06 4.63L87.24 3.81C87.4 3.59 87.6 3.4 87.85 3.24C88.25 2.94 88.84 2.66 89.65 2.66C91.18 2.66 92.19 3.68 92.19 5.01L92.19 8.89L90.92 8.89L90.92 8ZM90.92 5.97L89.14 6.29C88.5 6.4 88.19 6.72 88.19 7.11C88.19 7.56 88.56 7.94 89.21 7.94C90.16 7.94 90.92 7.17 90.92 6.16L90.92 5.97Z" fill="#000000" fill-opacity="1.000000" fill-rule="nonzero"/>
	</g>
	<g style="mix-blend-mode:normal">
		<path id="パス 50" d="M96.59 0.12C96.98 0.12 97.35 0.44 97.35 0.88C97.35 1.33 96.98 1.65 96.59 1.65C96.19 1.65 95.83 1.33 95.83 0.88C95.83 0.44 96.19 0.12 96.59 0.12ZM95.95 2.79L97.22 2.79L97.22 8.89L95.95 8.89L95.95 2.79Z" fill="#000000" fill-opacity="1.000000" fill-rule="nonzero"/>
	</g>
	<g style="mix-blend-mode:normal">
		<path id="パス 51" d="M101.3 7.05C101.42 7.21 101.56 7.35 101.73 7.47C102.02 7.67 102.39 7.87 102.88 7.87C103.6 7.87 103.96 7.5 103.96 7.11C103.96 6.09 100.72 6.62 100.72 4.44C100.72 3.49 101.56 2.66 102.95 2.66C103.67 2.66 104.22 2.88 104.57 3.08C104.79 3.2 104.97 3.34 105.11 3.49L104.28 4.32C104.18 4.23 104.07 4.14 103.93 4.06C103.68 3.92 103.35 3.81 102.95 3.81C102.3 3.81 102 4.13 102 4.44C102 5.46 105.24 4.95 105.24 7.11C105.24 8.13 104.36 9.02 102.88 9.02C102.07 9.02 101.49 8.74 101.08 8.45C100.84 8.28 100.63 8.09 100.47 7.87L101.3 7.05Z" fill="#000000" fill-opacity="1.000000" fill-rule="nonzero"/>
	</g>
	<g style="mix-blend-mode:normal">
		<path id="パス 52" d="M111.16 2.66C112.93 2.66 114.33 4.06 114.33 5.84C114.33 7.62 112.93 9.02 111.16 9.02C109.38 9.02 107.98 7.62 107.98 5.84C107.98 4.06 109.38 2.66 111.16 2.66ZM113.06 5.84C113.06 4.68 112.24 3.87 111.16 3.87C110.08 3.87 109.25 4.68 109.25 5.84C109.25 7 110.08 7.81 111.16 7.81C112.24 7.81 113.06 7 113.06 5.84Z" fill="#000000" fill-opacity="1.000000" fill-rule="nonzero"/>
	</g>
	<g style="mix-blend-mode:normal">
		<path id="パス 53" d="M117.29 2.79L118.56 2.79L118.56 3.68C118.69 3.49 118.84 3.32 119.03 3.17C119.35 2.92 119.82 2.66 120.47 2.66C121.87 2.66 122.88 3.67 122.88 5.33L122.88 8.89L121.61 8.89L121.61 5.33C121.61 4.43 121.04 3.87 120.21 3.87C119.26 3.87 118.56 4.57 118.56 5.59L118.56 8.89L117.29 8.89L117.29 2.79Z" fill="#000000" fill-opacity="1.000000" fill-rule="nonzero"/>
	</g>
	<g style="mix-blend-mode:normal">
		<path id="パス 54" d="M126.87 7.05C127 7.21 127.14 7.35 127.3 7.47C127.6 7.67 127.96 7.87 128.46 7.87C129.17 7.87 129.54 7.5 129.54 7.11C129.54 6.09 126.3 6.62 126.3 4.44C126.3 3.49 127.14 2.66 128.52 2.66C129.25 2.66 129.79 2.88 130.15 3.08C130.37 3.2 130.54 3.34 130.68 3.49L129.86 4.32C129.76 4.23 129.64 4.14 129.5 4.06C129.26 3.92 128.93 3.81 128.52 3.81C127.88 3.81 127.57 4.13 127.57 4.44C127.57 5.46 130.81 4.95 130.81 7.11C130.81 8.13 129.93 9.02 128.46 9.02C127.65 9.02 127.06 8.74 126.66 8.45C126.41 8.28 126.21 8.09 126.05 7.87L126.87 7.05Z" fill="#000000" fill-opacity="1.000000" fill-rule="nonzero"/>
	</g>
</svg>
