<svg width="48" height="39" viewBox="0 0 48 39" fill="none" xmlns="http://www.w3.org/2000/svg">
<path d="M46.3889 22.1356C45.4531 20.5568 44.2218 19.261 42.6809 18.2482C43.3282 17.3424 43.8348 16.3737 44.2007 15.3358C44.5665 14.3042 44.7495 13.2034 44.7495 12.046C44.7495 10.486 44.4117 9.00774 43.7433 7.61129C43.0749 6.21484 42.1602 5.00081 41.0063 3.96919C39.8524 2.93758 38.4944 2.11984 36.9324 1.52226C35.3704 0.924677 33.7169 0.622742 31.972 0.622742H23.409L21.0097 8.13968H39.1488L37.446 13.4613H19.307L18.0335 17.4494H36.1725L34.4768 22.771H16.3519L15.8382 24.3121L15.0572 26.7653H33.1962L31.5005 32.0869H13.3545L11.2296 38.7484H35.0115C36.7565 38.7484 38.41 38.4464 39.972 37.8489C41.534 37.2513 42.892 36.4273 44.0459 35.3768C45.1998 34.3263 46.1145 33.1123 46.7829 31.7347C47.4513 30.3571 47.7891 28.8726 47.7891 27.2748C47.7891 25.4255 47.3247 23.7145 46.3889 22.1356Z" fill="url(#paint0_linear_28_3)"/>
<path d="M11.1311 17.4619L12.4046 13.4739L14.1073 8.15225H10.6245C9.05544 8.15225 7.66933 9.07693 7.22606 10.4168L0 32.0932H6.45209L11.124 17.4619H11.1311Z" fill="#5A4DEF"/>
<defs>
<linearGradient id="paint0_linear_28_3" x1="13.1645" y1="9.78145" x2="39.5995" y2="39.3575" gradientUnits="userSpaceOnUse">
<stop stop-color="#5A4DEF"/>
<stop offset="0.53" stop-color="#A937ED"/>
<stop offset="0.58" stop-color="#AC3BE4"/>
<stop offset="0.66" stop-color="#B549CC"/>
<stop offset="0.76" stop-color="#C35EA5"/>
<stop offset="0.88" stop-color="#D77C6E"/>
<stop offset="1" stop-color="#F0A02E"/>
</linearGradient>
</defs>
</svg>
