<svg width="292" height="39" viewBox="0 0 292 39" fill="none" xmlns="http://www.w3.org/2000/svg">
<path d="M46.3889 22.1356C45.4531 20.5568 44.2218 19.261 42.6809 18.2482C43.3282 17.3424 43.8348 16.3737 44.2007 15.3358C44.5665 14.3042 44.7495 13.2034 44.7495 12.046C44.7495 10.486 44.4117 9.00774 43.7433 7.61129C43.0749 6.21484 42.1602 5.00081 41.0063 3.96919C39.8524 2.93758 38.4944 2.11984 36.9324 1.52226C35.3704 0.924677 33.7169 0.622742 31.972 0.622742H23.409L21.0097 8.13968H39.1488L37.446 13.4613H19.307L18.0335 17.4494H36.1725L34.4768 22.771H16.3519L15.8382 24.3121L15.0572 26.7653H33.1962L31.5005 32.0869H13.3545L11.2296 38.7484H35.0115C36.7565 38.7484 38.41 38.4464 39.972 37.8489C41.534 37.2513 42.892 36.4273 44.0459 35.3768C45.1998 34.3263 46.1145 33.1123 46.7829 31.7347C47.4513 30.3571 47.7891 28.8726 47.7891 27.2748C47.7891 25.4255 47.3247 23.7145 46.3889 22.1356Z" fill="url(#paint0_linear_11_1239)"/>
<path d="M11.1311 17.4619L12.4046 13.4739L14.1073 8.15225H10.6245C9.05544 8.15225 7.66933 9.07693 7.22606 10.4168L0 32.0932H6.45209L11.124 17.4619H11.1311Z" fill="#5A4DEF"/>
<g clip-path="url(#clip0_11_1239)">
<path d="M74.2856 17.0521L73.2147 21.0761H88.9129L87.8622 25.027H72.1611L71.1192 28.9369H86.8174L85.7348 32.999H66L71.2997 13.1012H91.0345L89.9839 17.0521H74.2856Z" fill="white"/>
<path d="M96.6397 23.507H108.45L105.921 32.999H90.0712L91.0228 29.4289H102.833L103.56 26.6935H91.7504L94.2795 17.2014H110.129L109.148 20.8858H97.3382L96.6397 23.507Z" fill="white"/>
<path d="M125.507 32.999H113.697L112.099 39H108.214L114.029 17.1634H129.727L125.51 32.999H125.507ZM124.785 21.1142H116.861L114.748 29.0511H122.672L124.785 21.1142Z" fill="white"/>
<path d="M149.61 17.1634L145.393 32.999H129.544L133.761 17.1634H149.61ZM144.523 21.1142H136.75L134.637 29.0511H142.41L144.523 21.1142Z" fill="white"/>
<path d="M166.024 17.1634L163.941 24.986H159.904L160.934 21.1113H156.633L153.466 32.9961H149.43L153.647 17.1604H166.024V17.1634Z" fill="white"/>
<path d="M172.407 21.1142L170.294 29.0511H178.219L177.168 32.999H165.358L170.937 12.0381H174.822L173.457 17.1663H181.382L180.331 21.1142H172.407Z" fill="white"/>
<path d="M187.732 23.507H199.542L197.013 32.999H181.164L182.115 29.4289H193.926L194.653 26.6935H182.843L185.372 17.2014H201.222L200.241 20.8858H188.431L187.732 23.507Z" fill="white"/>
<path d="M220.849 17.0521L216.603 33.002H200.904L206.495 12H210.38L209.036 17.0521H220.849ZM215.878 21.1142H207.953L205.869 28.9369H213.794L215.878 21.1142Z" fill="white"/>
<path d="M225.156 17.1634H241.006L238.477 26.6583H226.666L225.98 29.2415H237.79L236.8 32.9639H220.951L225.156 17.1663V17.1634ZM227.525 23.4309H235.298L236.026 20.6954H228.253L227.525 23.4309Z" fill="white"/>
<path d="M247.728 21.1142L245.615 29.0511H253.54L252.49 32.999H240.68L246.259 12.0381H250.144L248.779 17.1663H256.704L255.653 21.1142H247.728Z" fill="white"/>
<path d="M260.313 32.9551H256.424L257.475 29.0042H261.363L260.313 32.9551Z" fill="white"/>
<path d="M273.458 12.0703L272.641 15.1455H268.752L269.57 12.0703H273.458ZM268.156 17.3859H272.044L267.9 32.9551H264.012L268.156 17.3859Z" fill="white"/>
<path d="M292 17.1194L287.783 32.9551H271.933L276.15 17.1194H292ZM286.913 21.0703H279.139L277.026 29.0071H284.8L286.913 21.0703Z" fill="white"/>
</g>
<defs>
<linearGradient id="paint0_linear_11_1239" x1="13.1645" y1="9.78145" x2="39.5995" y2="39.3575" gradientUnits="userSpaceOnUse">
<stop stop-color="#5A4DEF"/>
<stop offset="0.53" stop-color="#A937ED"/>
<stop offset="0.58" stop-color="#AC3BE4"/>
<stop offset="0.66" stop-color="#B549CC"/>
<stop offset="0.76" stop-color="#C35EA5"/>
<stop offset="0.88" stop-color="#D77C6E"/>
<stop offset="1" stop-color="#F0A02E"/>
</linearGradient>
<clipPath id="clip0_11_1239">
<rect width="226" height="27" fill="white" transform="translate(66 12)"/>
</clipPath>
</defs>
</svg>
