<?xml version="1.0" encoding="UTF-8"?>
<svg xmlns="http://www.w3.org/2000/svg" version="1.1" viewBox="0 0 516.5 86.3">
  <defs>
    <style>
      .cls-1 {
        fill: #fff;
      }
    </style>
  </defs>
  <!-- Generator: Adobe Illustrator 28.7.1, SVG Export Plug-In . SVG Version: 1.2.0 Build 142)  -->
  <g>
    <g id="_レイヤー_2">
      <g>
        <g>
          <g>
            <path class="cls-1" d="M42.1,64h2.4v16.8h-2.4v-16.8Z"/>
            <path class="cls-1" d="M61.9,78.9c-.3.4-.7.8-1.2,1.1-.8.6-2,1.1-3.7,1.1-3.4,0-6-2.6-6-6s2.6-6,5.9-6,5.6,2.4,5.6,5.6,0,.6,0,.9v.3h-8.9c.3,1.6,1.7,2.9,3.6,2.9s1.9-.4,2.5-.8c.3-.2.6-.5.9-.8l1.4,1.7ZM60,73.8c-.4-1.6-1.4-2.6-3.1-2.6s-2.9,1.1-3.4,2.6h6.5Z"/>
            <path class="cls-1" d="M69,77.3c.2.3.5.6.8.8.6.4,1.2.8,2.2.8,1.3,0,2-.7,2-1.4,0-1.9-6.1-.9-6.1-5s1.6-3.4,4.2-3.4,2.4.4,3.1.8c.4.2.7.5,1,.8l-1.6,1.6c-.2-.2-.4-.3-.7-.5-.5-.3-1.1-.5-1.8-.5-1.2,0-1.8.6-1.8,1.2,0,1.9,6.1,1,6.1,5s-1.7,3.6-4.4,3.6-2.6-.5-3.4-1.1c-.5-.3-.8-.7-1.2-1.1l1.6-1.6Z"/>
            <path class="cls-1" d="M100.3,79.1c-.2.4-.6.7-.9,1-.6.5-1.7,1-3,1-2.9,0-5.4-2.5-5.4-6s2.5-6,5.4-6,2.4.5,3,1c.4.3.7.6.9,1v-1.7h2.4v16.6h-2.4v-6.7ZM100.3,75c0-2.2-1.6-3.7-3.5-3.7s-3.5,1.5-3.5,3.7,1.6,3.7,3.5,3.7,3.5-1.5,3.5-3.7Z"/>
            <path class="cls-1" d="M109.2,69.2h2.4v6.7c0,1.7,1.1,2.8,2.6,2.8s3.1-1.3,3.1-3.2v-6.2h2.4v11.5h-2.4v-1.7c-.3.4-.6.7-.9,1-.6.5-1.5,1-2.7,1-2.6,0-4.6-1.9-4.6-5v-6.7Z"/>
            <path class="cls-1" d="M133.6,79.1c-.2.4-.6.7-.9,1-.6.5-1.6,1-2.8,1-2.3,0-3.8-1.6-3.8-3.4s1.3-3.2,3.4-3.6l4.2-.7c0-1.2-1-2.2-2.4-2.2s-1.6.4-2.2.8c-.3.2-.6.5-.8.8l-1.6-1.6c.3-.4.7-.8,1.2-1.1.8-.6,1.9-1.1,3.4-1.1,2.9,0,4.8,1.9,4.8,4.4v7.3h-2.4v-1.7ZM133.6,75.3l-3.4.6c-1.2.2-1.8.8-1.8,1.6s.7,1.6,1.9,1.6c1.8,0,3.2-1.4,3.2-3.4v-.4Z"/>
            <path class="cls-1" d="M143.6,71.5h-2.2v-2.3h1.3c.7,0,1.1-.4,1.1-1.3v-2.5h2.2v3.8h2.6v2.3h-2.6v5.4c0,1.2.6,1.8,1.7,1.8s.7,0,.9-.2l.4-.2v2.3l-.5.2c-.3,0-.7.2-1.3.2-2.3,0-3.6-1.3-3.6-3.8v-5.6Z"/>
            <path class="cls-1" d="M155.4,69.2h2.4v1.6c.3-.3.6-.6.9-.9.6-.5,1.4-.9,2.6-.9h.6v2.5h-.3c-.2,0-.4-.1-.6-.1-1.7,0-3.1,1.4-3.1,3.5v5.9h-2.4v-11.5Z"/>
            <path class="cls-1" d="M177.3,78.9c-.3.4-.7.8-1.2,1.1-.8.6-2,1.1-3.7,1.1-3.4,0-6-2.6-6-6s2.6-6,5.9-6,5.6,2.4,5.6,5.6,0,.6,0,.9v.3h-8.9c.3,1.6,1.7,2.9,3.6,2.9s1.9-.4,2.5-.8c.3-.2.6-.5.9-.8l1.4,1.7ZM175.4,73.8c-.4-1.6-1.4-2.6-3.1-2.6s-2.9,1.1-3.4,2.6h6.5Z"/>
            <path class="cls-1" d="M193.8,77.3c.2.3.5.6.8.8.6.4,1.2.8,2.2.8,1.3,0,2-.7,2-1.4,0-1.9-6.1-.9-6.1-5s1.6-3.4,4.2-3.4,2.4.4,3.1.8c.4.2.7.5,1,.8l-1.6,1.6c-.2-.2-.4-.3-.7-.5-.5-.3-1.1-.5-1.8-.5-1.2,0-1.8.6-1.8,1.2,0,1.9,6.1,1,6.1,5s-1.7,3.6-4.4,3.6-2.6-.5-3.4-1.1c-.5-.3-.8-.7-1.2-1.1l1.6-1.6Z"/>
            <path class="cls-1" d="M214,79.1c-.2.4-.6.7-.9,1-.6.5-1.6,1-2.8,1-2.3,0-3.8-1.6-3.8-3.4s1.3-3.2,3.4-3.6l4.2-.7c0-1.2-1-2.2-2.4-2.2s-1.6.4-2.2.8c-.3.2-.6.5-.8.8l-1.6-1.6c.3-.4.7-.8,1.2-1.1.8-.6,1.9-1.1,3.4-1.1,2.9,0,4.8,1.9,4.8,4.4v7.3h-2.4v-1.7ZM214,75.3l-3.4.6c-1.2.2-1.8.8-1.8,1.6s.7,1.6,1.9,1.6c1.8,0,3.2-1.4,3.2-3.4v-.4Z"/>
            <path class="cls-1" d="M224.7,64.2c.7,0,1.4.6,1.4,1.4s-.7,1.4-1.4,1.4-1.4-.6-1.4-1.4.7-1.4,1.4-1.4ZM223.5,69.2h2.4v11.5h-2.4v-11.5Z"/>
            <path class="cls-1" d="M233.6,77.3c.2.3.5.6.8.8.6.4,1.2.8,2.2.8,1.3,0,2-.7,2-1.4,0-1.9-6.1-.9-6.1-5s1.6-3.4,4.2-3.4,2.4.4,3.1.8c.4.2.7.5,1,.8l-1.6,1.6c-.2-.2-.4-.3-.7-.5-.5-.3-1.1-.5-1.8-.5-1.2,0-1.8.6-1.8,1.2,0,1.9,6.1,1,6.1,5s-1.7,3.6-4.4,3.6-2.6-.5-3.4-1.1c-.5-.3-.8-.7-1.2-1.1l1.6-1.6Z"/>
            <path class="cls-1" d="M252.2,69c3.4,0,6,2.6,6,6s-2.6,6-6,6-6-2.6-6-6,2.6-6,6-6ZM255.8,75c0-2.2-1.6-3.7-3.6-3.7s-3.6,1.5-3.6,3.7,1.6,3.7,3.6,3.7,3.6-1.5,3.6-3.7Z"/>
            <path class="cls-1" d="M263.8,69.2h2.4v1.7c.2-.4.5-.7.9-1,.6-.5,1.5-1,2.7-1,2.6,0,4.6,1.9,4.6,5v6.7h-2.4v-6.7c0-1.7-1.1-2.8-2.6-2.8s-3.1,1.3-3.1,3.2v6.2h-2.4v-11.5Z"/>
            <path class="cls-1" d="M282,77.3c.2.3.5.6.8.8.6.4,1.2.8,2.2.8,1.3,0,2-.7,2-1.4,0-1.9-6.1-.9-6.1-5s1.6-3.4,4.2-3.4,2.4.4,3.1.8c.4.2.7.5,1,.8l-1.6,1.6c-.2-.2-.4-.3-.7-.5-.5-.3-1.1-.5-1.8-.5-1.2,0-1.8.6-1.8,1.2,0,1.9,6.1,1,6.1,5s-1.7,3.6-4.4,3.6-2.6-.5-3.4-1.1c-.5-.3-.8-.7-1.2-1.1l1.6-1.6Z"/>
          </g>
          <g>
            <path class="cls-1" d="M0,67h1.4v5.7c.2-.3.5-.6.8-.8.5-.4,1.3-.8,2.4-.8,2.6,0,4.6,2.1,4.6,4.9s-2.1,4.9-4.6,4.9-1.9-.4-2.4-.8c-.3-.2-.6-.5-.8-.8v1.4H0v-13.8ZM7.9,76.1c0-2.1-1.5-3.6-3.2-3.6s-3.2,1.6-3.2,3.6,1.6,3.6,3.2,3.6,3.2-1.5,3.2-3.6Z"/>
            <path class="cls-1" d="M13.8,83.4c0,0,.2,0,.3,0,.2,0,.4,0,.7,0,.9,0,1.4-.5,1.8-1.5l.5-1.4-3.8-9.4h1.5l3,7.7,3-7.7h1.5l-4.3,10.8c-.8,2-1.6,2.8-2.9,2.8s-.6,0-.8,0c-.1,0-.2,0-.3,0v-1.3Z"/>
          </g>
        </g>
        <g>
          <g>
            <path class="cls-1" d="M160,14.4c-1.7-1.7-4-2.6-6.8-2.6s-3.8.5-5.3,1.4c-1.5.9-2.8,2-3.8,3.3h0s3.6,1.6,3.6,1.6c.6-.6,1.2-1,1.9-1.4,1-.6,2.2-.9,3.5-.9s2.8.5,3.8,1.5,1.5,2.3,1.5,3.9v.4l-8.1,1.5c-2.4.5-4.3,1.4-5.6,2.8-1.3,1.4-2,3.1-2,5.1s.3,2.5,1,3.6c.7,1.1,1.6,2,2.8,2.6,1.2.6,2.6,1,4.1,1s2.7-.3,3.8-.8l1.5-4.2-2.5.9h0c-.7.2-1.4.4-2.2.4-1.3,0-2.4-.4-3.2-1.1-.8-.7-1.2-1.7-1.2-2.8s.4-2,1.1-2.7c.8-.7,1.9-1.2,3.3-1.5l7.1-1.4h0s.2,0,.2,0v12.7h0s4,0,4,0v-16.4c0-2.8-.9-5.1-2.6-6.8Z"/>
            <path class="cls-1" d="M109,14.4c-1.7-1.7-4-2.6-6.8-2.6s-3.8.5-5.3,1.4c-1.5.9-2.8,2-3.8,3.3h0s3.6,1.6,3.6,1.6c.6-.6,1.2-1,1.9-1.4,1-.6,2.2-.9,3.5-.9s2.8.5,3.8,1.5,1.5,2.3,1.5,3.9v.4l-8.1,1.5c-2.4.5-4.3,1.4-5.6,2.8-1.3,1.4-2,3.1-2,5.1s.3,2.5,1,3.6c.7,1.1,1.6,2,2.8,2.6,1.2.6,2.6,1,4.1,1s2.7-.3,3.8-.8l1.5-4.2-2.5.9h0c-.7.2-1.4.4-2.2.4-1.3,0-2.4-.4-3.2-1.1-.8-.7-1.2-1.7-1.2-2.8s.4-2,1.1-2.7c.8-.7,1.9-1.2,3.3-1.5l7.1-1.4h0s.2,0,.2,0v12.7h0s4,0,4,0v-16.4c0-2.8-.9-5.1-2.6-6.8Z"/>
            <path class="cls-1" d="M51.9,37.5V12.3h4.1v3.5h.1c.4-.9,1.2-1.8,2.4-2.7s2.6-1.3,4.3-1.3,3.3.4,4.6,1.3c1.3.8,2.3,1.9,2.9,3h.1c.6-1.1,1.6-2.1,3-3s3.1-1.3,5-1.3,3.1.4,4.4,1.2c1.3.8,2.3,2,3.1,3.5.8,1.5,1.1,3.4,1.1,5.5v15.5h-4.1v-15.4c0-2-.5-3.6-1.5-4.7s-2.3-1.6-3.9-1.6-3.2.6-4.4,1.9c-1.1,1.3-1.7,3.1-1.7,5.3v14.4h-4.1v-15.4c0-2-.5-3.6-1.5-4.7s-2.3-1.6-3.9-1.6-3.2.6-4.3,1.9-1.7,3.1-1.7,5.3v14.4h-4.1Z"/>
            <path class="cls-1" d="M117.1,37.5V12.3h4.1v3.5h.1c.6-1.1,1.6-2,3-2.8,1.3-.8,2.8-1.2,4.4-1.2,2.8,0,5,.9,6.7,2.8,1.7,1.9,2.6,4.4,2.6,7.7v15.3h-4.1v-15.2c0-2-.5-3.6-1.6-4.7-1.1-1.2-2.5-1.8-4.2-1.8s-3.6.7-4.9,2c-1.3,1.3-1.9,3.1-1.9,5.4v14.3h-4.1Z"/>
            <path class="cls-1" d="M196.5,36.3c-1.8-1.2-3.3-2.7-4.4-4.7-1.1-2-1.6-4.2-1.6-6.7s.5-4.7,1.6-6.7c1.1-2,2.5-3.6,4.4-4.7s3.9-1.7,6.1-1.7,4.2.6,6.1,1.7c1.9,1.2,3.3,2.7,4.4,4.7,1.1,2,1.6,4.2,1.6,6.7s-.5,4.7-1.6,6.7c-1.1,2-2.5,3.6-4.4,4.7-1.9,1.2-3.9,1.7-6.1,1.7s-4.3-.6-6.1-1.7ZM206.6,32.9c1.2-.8,2.2-1.9,2.9-3.3.7-1.4,1-3,1-4.7s-.3-3.3-1-4.7c-.7-1.4-1.7-2.5-2.9-3.3-1.2-.8-2.5-1.2-4-1.2s-2.8.4-4,1.2c-1.2.8-2.2,1.9-2.9,3.3-.7,1.4-1,3-1,4.7s.3,3.3,1,4.7c.7,1.4,1.7,2.5,2.9,3.3,1.2.8,2.5,1.2,4,1.2s2.8-.4,4-1.2Z"/>
            <path class="cls-1" d="M43.2,14.4c-1.7-1.7-4-2.6-6.8-2.6s-3.8.5-5.3,1.4c-1.5.9-2.8,2-3.8,3.3h0s3.6,1.6,3.6,1.6c.6-.6,1.2-1,1.9-1.4,1-.6,2.2-.9,3.5-.9s2.8.5,3.8,1.5c1,1,1.5,2.3,1.5,3.9v.4l-8.1,1.5c-2.4.5-4.3,1.4-5.6,2.8-1.3,1.4-2,3.1-2,5.1s.3,2.5,1,3.6c.7,1.1,1.6,2,2.8,2.6,1.2.6,2.6,1,4.1,1s2.7-.3,3.8-.8l1.5-4.2-2.5.9h0c-.7.2-1.4.4-2.2.4-1.3,0-2.4-.4-3.2-1.1-.8-.7-1.2-1.7-1.2-2.8s.4-2,1.1-2.7c.8-.7,1.9-1.2,3.3-1.5l7.1-1.4h0s.2,0,.2,0v12.7h0s4,0,4,0v-16.4c0-2.8-.9-5.1-2.6-6.8Z"/>
            <path class="cls-1" d="M18.6,14.6c-1.7-1.9-4-2.8-6.7-2.8s-3.1.4-4.4,1.2c-1.3.8-2.3,1.7-3,2.8h-.1V.8L.2,2.3v35.2h4.1v-14.3c0-2.3.6-4.1,1.9-5.4,1.3-1.3,2.9-2,4.9-2s3.1.6,4.2,1.8c1.1,1.2,1.6,2.8,1.6,4.7v15.2h4.1v-15.3c0-3.3-.9-5.8-2.6-7.7Z"/>
            <polygon class="cls-1" points="179.8 22.6 188.8 12.3 183.7 12.3 172.8 25 172.8 .8 168.6 2.3 168.6 37.5 172.8 37.5 172.8 30.5 177.1 25.6 185 37.5 189.8 37.5 179.8 22.6"/>
          </g>
          <g>
            <path class="cls-1" d="M351.8,36.6c-1.6-1-2.7-2-3.5-3l2.8-2.6c.6.9,1.5,1.6,2.6,2.3,1.1.6,2.3,1,3.5,1s2.7-.3,3.5-1c.9-.7,1.3-1.6,1.3-2.6s-.4-1.7-1.2-2.3c-.8-.5-2.1-1.1-3.9-1.8-1.6-.6-2.9-1.2-3.9-1.7-1-.5-1.9-1.3-2.6-2.2s-1.1-2.2-1.1-3.6.3-2.4,1-3.5c.7-1.1,1.6-1.9,2.9-2.6,1.2-.6,2.7-1,4.3-1s3.3.3,4.7,1,2.5,1.5,3.3,2.4l-2.7,2.6c-.6-.6-1.3-1.1-2.2-1.6-.9-.5-1.9-.7-3-.7s-2.2.3-3,.9c-.8.6-1.2,1.3-1.2,2.2s.4,1.6,1.2,2c.8.5,2.1,1,3.8,1.6,1.6.6,3,1.2,4,1.7s1.9,1.3,2.6,2.3c.7,1,1.1,2.3,1.1,3.8s-.4,2.7-1.1,3.9-1.8,2.1-3.1,2.8c-1.3.7-2.9,1.1-4.7,1.1s-3.9-.5-5.5-1.5Z"/>
            <path class="cls-1" d="M399.2,37.5V12.3h4.1v3.4h.1c.6-1,1.6-1.9,2.9-2.7,1.3-.8,2.9-1.2,4.6-1.2h1v4.3c-.2,0-.4,0-.7,0-.3,0-.5,0-.8,0-1.3,0-2.5.3-3.6,1-1.1.7-1.9,1.6-2.5,2.8-.6,1.2-.9,2.5-.9,4v13.7h-4.1Z"/>
            <path class="cls-1" d="M416.1,6.3c-.5-.5-.8-1.1-.8-1.9s.3-1.4.8-1.9c.5-.5,1.1-.8,1.8-.8s1.4.3,1.9.8c.5.5.8,1.1.8,1.9s-.3,1.4-.8,1.9c-.5.5-1.1.8-1.9.8s-1.3-.3-1.8-.8ZM419.9,37.5h-4.1V12.3h4.1v25.2Z"/>
            <path class="cls-1" d="M426.7,37.5V12.3h4.1v3.5h.1c.6-1.1,1.6-2,3-2.8,1.3-.8,2.8-1.2,4.4-1.2,2.8,0,5,.9,6.7,2.8,1.7,1.9,2.6,4.4,2.6,7.7v15.3h-4.1v-15.2c0-2-.5-3.6-1.6-4.7-1.1-1.2-2.5-1.8-4.2-1.8s-3.6.7-4.9,2c-1.3,1.3-1.9,3.1-1.9,5.4v14.3h-4.1Z"/>
            <path class="cls-1" d="M482.3,36.6c-1.6-1-2.7-2-3.5-3l2.8-2.6c.6.9,1.5,1.6,2.6,2.3,1.1.6,2.3,1,3.5,1s2.7-.3,3.5-1c.9-.7,1.3-1.6,1.3-2.6s-.4-1.7-1.2-2.3c-.8-.5-2.1-1.1-3.9-1.8-1.6-.6-2.9-1.2-3.9-1.7-1-.5-1.9-1.3-2.6-2.2-.7-1-1.1-2.2-1.1-3.6s.3-2.4,1-3.5c.7-1.1,1.6-1.9,2.9-2.6,1.2-.6,2.7-1,4.3-1s3.3.3,4.7,1,2.5,1.5,3.3,2.4l-2.7,2.6c-.6-.6-1.3-1.1-2.2-1.6-.9-.5-1.9-.7-3-.7s-2.2.3-3,.9c-.8.6-1.2,1.3-1.2,2.2s.4,1.6,1.2,2c.8.5,2.1,1,3.8,1.6,1.6.6,3,1.2,4,1.7s1.9,1.3,2.6,2.3c.7,1,1.1,2.3,1.1,3.8s-.4,2.7-1.1,3.9c-.7,1.2-1.8,2.1-3.1,2.8-1.3.7-2.9,1.1-4.7,1.1s-3.9-.5-5.5-1.5Z"/>
            <path class="cls-1" d="M470.4,12.3v3.7h-.1c-.6-1-1.6-2-3-2.9-1.4-.9-3-1.3-4.8-1.3s-3.7.5-5.4,1.6c-1.6,1.1-2.9,2.6-3.9,4.5-.9,1.9-1.4,4.1-1.4,6.5s.5,4.6,1.4,6.5c.9,1.9,2.2,3.4,3.9,4.5,1.6,1.1,3.4,1.6,5.4,1.6s2.7-.3,3.9-.8l1.5-4.3-2.2.8c-.8.3-1.6.5-2.6.5-1.3,0-2.5-.4-3.6-1.1-1.1-.7-2-1.8-2.6-3.1-.6-1.3-.9-2.8-.9-4.5s.3-3.2.9-4.5c.6-1.3,1.5-2.4,2.6-3.1,1.1-.7,2.3-1.1,3.6-1.1s2.6.4,3.7,1.1c1.1.7,2,1.8,2.6,3.1.6,1.3.9,2.8.9,4.5s0,0,0,0v8.3h0v3.1c0,2.6-.7,4.7-2.1,6.3-1.4,1.6-3.2,2.4-5.5,2.4s-3.1-.4-4.4-1.3c-.7-.5-1.3-1-1.8-1.4l-3.9,1.4h0c.8,1.2,2.1,2.4,3.9,3.5,1.8,1.1,3.9,1.7,6.3,1.7s4.3-.5,6.1-1.6c1.8-1.1,3.1-2.6,4.1-4.5,1-1.9,1.5-4.1,1.5-6.5V12.3h-4.1Z"/>
            <path class="cls-1" d="M392.8,18.2c-1-2-2.3-3.5-4-4.7-1.7-1.1-3.5-1.7-5.5-1.7s-3.5.4-5,1.3c-1.5.9-2.5,1.9-3.2,3.1h-.1v-3.8h-4.1v36.2l4.1-1.5v-13.3h0v-8.3s0-.3,0-.5c0-1.7.3-3.3,1-4.7.7-1.4,1.6-2.5,2.8-3.3,1.2-.8,2.5-1.2,3.9-1.2s2.7.4,3.8,1.2c1.2.8,2.1,1.9,2.7,3.3.7,1.4,1,2.9,1,4.7s-.3,3.3-1,4.7c-.7,1.4-1.6,2.5-2.7,3.3-1.2.8-2.4,1.2-3.8,1.2s-1.7-.2-2.5-.5h0s-2.6-.9-2.6-.9l1.6,4.5c1.3.6,2.7.9,4.3.9s3.8-.6,5.5-1.7c1.7-1.1,3-2.7,4-4.7,1-2,1.5-4.2,1.5-6.8s-.5-4.8-1.5-6.8Z"/>
          </g>
          <path class="cls-1" d="M196.5,36.4c-1.8-1.2-3.3-2.7-4.4-4.7-1.1-2-1.6-4.2-1.6-6.7s.5-4.7,1.6-6.7c1.1-2,2.5-3.6,4.4-4.7,1.8-1.2,3.9-1.7,6.1-1.7s4.2.6,6.1,1.7c1.9,1.2,3.3,2.7,4.4,4.7,1.1,2,1.6,4.2,1.6,6.7s-.5,4.7-1.6,6.7c-1.1,2-2.5,3.6-4.4,4.7-1.9,1.2-3.9,1.7-6.1,1.7s-4.3-.6-6.1-1.7ZM206.6,32.9c1.2-.8,2.2-1.9,2.9-3.3.7-1.4,1.1-3,1.1-4.7s-.4-3.3-1.1-4.7c-.7-1.4-1.7-2.5-2.9-3.3-1.2-.8-2.6-1.2-4-1.2s-2.8.4-4,1.2c-1.2.8-2.2,1.9-2.9,3.3-.7,1.4-1.1,3-1.1,4.7s.4,3.3,1.1,4.7c.7,1.4,1.7,2.5,2.9,3.3,1.2.8,2.6,1.2,4,1.2s2.8-.4,4-1.2Z"/>
          <g>
            <path class="cls-1" d="M289.4,37.5h-4.2V.6h4.2v36.9Z"/>
            <path class="cls-1" d="M296.5,37.5V12.2h4.2v3.5h.1c.4-.9,1.2-1.8,2.4-2.7,1.2-.9,2.7-1.3,4.3-1.3s3.3.4,4.6,1.3c1.3.8,2.3,1.9,2.9,3.1h.1c.6-1.1,1.6-2.1,3-3,1.4-.9,3.1-1.3,5-1.3s3.1.4,4.5,1.2c1.3.8,2.4,2,3.1,3.5.8,1.5,1.1,3.4,1.1,5.5v15.5h-4.2v-15.5c0-2-.5-3.6-1.5-4.7-1-1.1-2.3-1.6-3.9-1.6s-3.2.7-4.4,1.9c-1.1,1.3-1.7,3.1-1.7,5.4v14.5h-4.2v-15.5c0-2-.5-3.6-1.5-4.7-1-1.1-2.3-1.6-3.9-1.6s-3.2.7-4.3,1.9c-1.1,1.3-1.7,3.1-1.7,5.4v14.5h-4.2Z"/>
            <path class="cls-1" d="M253.8,18.1c-1-2-2.3-3.5-4-4.7-1.7-1.1-3.5-1.7-5.5-1.7s-3.5.4-5,1.3c-1.5.9-2.5,1.9-3.2,3.1h-.1v-3.8h-4.1v36.2l4.1-1.5v-13.3h0v-8.3s0-.3,0-.5c0-1.7.3-3.3,1-4.7.7-1.4,1.6-2.5,2.8-3.3,1.2-.8,2.5-1.2,3.9-1.2s2.7.4,3.8,1.2c1.2.8,2.1,1.9,2.7,3.3.7,1.4,1,2.9,1,4.7s-.3,3.3-1,4.7c-.7,1.4-1.6,2.5-2.7,3.3-1.2.8-2.4,1.2-3.8,1.2s-1.7-.2-2.5-.5h0s-2.6-.9-2.6-.9l1.6,4.5c1.3.6,2.7.9,4.3.9s3.8-.6,5.5-1.7,3-2.7,4-4.7c1-2,1.5-4.2,1.5-6.8s-.5-4.8-1.5-6.8Z"/>
            <path class="cls-1" d="M275.7,14.4c-1.7-1.7-4-2.6-6.8-2.6s-3.8.5-5.3,1.4c-1.5.9-2.8,2-3.8,3.3h0s3.6,1.6,3.6,1.6c.6-.6,1.2-1,1.9-1.4,1-.6,2.2-.9,3.5-.9s2.8.5,3.8,1.5c1,1,1.5,2.3,1.5,3.9v.4l-8.1,1.5c-2.4.5-4.3,1.4-5.6,2.8-1.3,1.4-2,3.1-2,5.1s.3,2.5,1,3.6c.7,1.1,1.6,2,2.8,2.6s2.6,1,4.1,1,2.7-.3,3.8-.8l1.5-4.2-2.5.9h0c-.7.2-1.4.4-2.2.4-1.3,0-2.4-.4-3.2-1.1-.8-.7-1.2-1.7-1.2-2.8s.4-2,1.1-2.7c.8-.7,1.9-1.2,3.3-1.5l7.1-1.4h0s.2,0,.2,0v12.7h0s4,0,4,0v-16.4c0-2.8-.9-5.1-2.6-6.8Z"/>
          </g>
        </g>
      </g>
    </g>
  </g>
</svg>