<svg xmlns="http://www.w3.org/2000/svg" xmlns:xlink="http://www.w3.org/1999/xlink" width="184" height="40" viewBox="0 0 184 40">
  <defs>
    <linearGradient id="linear-gradient" x1="0.685" y1="0.008" x2="-0.202" y2="1.211" gradientUnits="objectBoundingBox">
      <stop offset="0" stop-color="#ffc2a7"/>
      <stop offset="0.065" stop-color="#ffb395"/>
      <stop offset="0.194" stop-color="#ff9b78"/>
      <stop offset="0.306" stop-color="#ff8c67"/>
      <stop offset="0.388" stop-color="#ff8761"/>
      <stop offset="0.6" stop-color="#ff455b"/>
      <stop offset="1" stop-color="#a83758"/>
    </linearGradient>
    <linearGradient id="linear-gradient-2" x1="0.782" y1="-0.192" x2="-0.246" y2="1.148" gradientUnits="objectBoundingBox">
      <stop offset="0" stop-color="#ffc2a7"/>
      <stop offset="0.065" stop-color="#ffb395"/>
      <stop offset="0.194" stop-color="#ff9b78"/>
      <stop offset="0.306" stop-color="#ff8c67"/>
      <stop offset="0.388" stop-color="#ff8761"/>
      <stop offset="0.677" stop-color="#ff455b"/>
      <stop offset="1" stop-color="#a83758"/>
    </linearGradient>
    <linearGradient id="linear-gradient-3" x1="0.403" y1="-0.337" x2="0.549" y2="1.277" gradientUnits="objectBoundingBox">
      <stop offset="0" stop-color="#ffc2a7"/>
      <stop offset="0.023" stop-color="#ffb395"/>
      <stop offset="0.07" stop-color="#ff9b78"/>
      <stop offset="0.11" stop-color="#ff8c67"/>
      <stop offset="0.139" stop-color="#ff8761"/>
      <stop offset="0.677" stop-color="#ff455b"/>
      <stop offset="1" stop-color="#a83758"/>
    </linearGradient>
  </defs>
  <g id="Group_323" data-name="Group 323" transform="translate(-151.456 -141.004)">
    <g id="Group_321" data-name="Group 321" transform="translate(195.475 150.361)">
      <path id="Path_607" data-name="Path 607" d="M336.413,183.02a4.235,4.235,0,0,1-2.707,4.016,5.078,5.078,0,0,1,3.332,4.641c0,4.641-3.481,6.128-7.794,6.128h-9.877V176.981h9.877C333.349,176.981,336.413,178.825,336.413,183.02Zm-13.179,2.321h6.009c2.469,0,3.272-1.041,3.272-2.231,0-.952-.773-2.558-3.272-2.558h-6.009Zm0,8.806h6.009c1.606,0,3.9-.536,3.9-2.5,0-1.874-2.291-2.856-3.9-2.856h-6.009Z" transform="translate(-319.367 -176.907)" fill="#ff704a"/>
      <path id="Path_608" data-name="Path 608" d="M397.553,207.842c.238,1.815,1.815,3.124,4.373,3.124a6.054,6.054,0,0,0,3.927-1.368l2.321,2.29a9.009,9.009,0,0,1-6.307,2.38c-5.058,0-8.062-3.124-8.062-7.824,0-4.462,3.034-7.675,7.794-7.675,4.908,0,7.973,3.034,7.407,9.073Zm7.973-3c-.238-1.9-1.726-2.856-3.808-2.856a3.95,3.95,0,0,0-4.105,2.856Z" transform="translate(-374.291 -192.983)" fill="#ff704a"/>
      <path id="Path_609" data-name="Path 609" d="M464.95,176.981v7.556c1.309-1.7,2.916-1.606,4.581-1.606,4.165,0,6.009,2.826,6.009,7.14v7.735h-3.629V190.1c0-2.677-1.4-3.808-3.332-3.808-2.142,0-3.63,1.22-3.63,3.421v8.092h-3.629V176.981Z" transform="translate(-424.107 -176.907)" fill="#ff704a"/>
      <path id="Path_610" data-name="Path 610" d="M528.5,207.842c.238,1.815,1.815,3.124,4.373,3.124A6.053,6.053,0,0,0,536.8,209.6l2.321,2.29a9.008,9.008,0,0,1-6.307,2.38c-5.057,0-8.062-3.124-8.062-7.824,0-4.462,3.034-7.675,7.794-7.675,4.908,0,7.973,3.034,7.407,9.073Zm7.973-3c-.238-1.9-1.725-2.856-3.808-2.856a3.95,3.95,0,0,0-4.105,2.856Z" transform="translate(-470.908 -192.983)" fill="#ff704a"/>
      <path id="Path_611" data-name="Path 611" d="M602.024,214.384V206.53c0-1.934-1.012-3.689-3-3.689-1.963,0-3.123,1.755-3.123,3.689v7.854h-3.63v-14.7h3.659l-.029,1.785a4.249,4.249,0,0,1,3.867-2.023,4.394,4.394,0,0,1,4.343,2.737,5.311,5.311,0,0,1,4.909-2.677c4.165,0,6.217,2.559,6.217,6.962v7.913H611.6v-7.913c0-1.934-.8-3.57-2.767-3.57s-3.183,1.7-3.183,3.629v7.854Z" transform="translate(-520.724 -193.485)" fill="#ff704a"/>
      <path id="Path_612" data-name="Path 612" d="M706.588,206.981a7.631,7.631,0,1,1-7.675-7.645A7.414,7.414,0,0,1,706.588,206.981Zm-11.632,0c0,2.231,1.339,4.314,3.986,4.314s3.987-2.083,3.987-4.314a4.142,4.142,0,0,0-3.987-4.343C696.325,202.638,694.956,204.78,694.956,206.981Z" transform="translate(-593.816 -193.401)" fill="#ff704a"/>
      <path id="Path_613" data-name="Path 613" d="M763.284,197.816c-3.183,0-6.1-1.7-6.1-5.355v-6.337h-.952V183h.952v-6.247h3.629V183h1.369v3.124h-1.4v6.337a2.3,2.3,0,0,0,2.5,2.083Z" transform="translate(-641.706 -176.738)" fill="#ff704a"/>
      <path id="Path_614" data-name="Path 614" d="M797.133,176.7v7.556c1.309-1.7,2.915-1.606,4.581-1.606,4.165,0,6.009,2.826,6.009,7.14v7.735h-3.629v-7.705c0-2.677-1.4-3.808-3.332-3.808-2.142,0-3.629,1.22-3.629,3.421v8.092H793.5V176.7Z" transform="translate(-669.206 -176.697)" fill="#ff704a"/>
    </g>
    <g id="Group_322" data-name="Group 322" transform="translate(151.456 141.004)">
      <path id="Path_615" data-name="Path 615" d="M151.456,177.673" transform="translate(-151.456 -168.06)" fill="#fff"/>
      <path id="Path_616" data-name="Path 616" d="M162.886,194.407l.141-33.764,28.225,14.769a2.606,2.606,0,0,1,.087,4.57l-26.828,15.368A1.086,1.086,0,0,1,162.886,194.407Z" transform="translate(-159.89 -155.494)" fill="url(#linear-gradient)"/>
      <path id="Path_617" data-name="Path 617" d="M162.886,180.029V144.919a3.91,3.91,0,0,1,5.829-3.406l10.9,6.142a3.933,3.933,0,0,1,1.429,5.471l-16.636,27.33A.821.821,0,0,1,162.886,180.029Z" transform="translate(-159.89 -141.004)" fill="url(#linear-gradient-2)"/>
      <path id="Path_618" data-name="Path 618" d="M162.946,177.213l-.06,25.763,16.6-9.835a4.154,4.154,0,0,0-.185-7.232Z" transform="translate(-159.89 -167.72)" opacity="0.65" fill="url(#linear-gradient-3)"/>
    </g>
  </g>
</svg>
