<?xml version="1.0" encoding="UTF-8"?>
<svg id="Layer_1" data-name="Layer 1" xmlns="http://www.w3.org/2000/svg" version="1.1" viewBox="0 0 1577.89 513.22">
  <defs>
    <style>
      .cls-1 {
        fill: #12562d;
      }

      .cls-1, .cls-2 {
        stroke-width: 0px;
      }

      .cls-2 {
        fill: #fff;
      }
    </style>
  </defs>
  <g>
    <path class="cls-1" d="M390.4,396.7h-141.58v-141.58c0-78.07,63.51-141.58,141.58-141.58h0c78.07,0,141.58,63.51,141.58,141.58s-63.51,141.58-141.58,141.58ZM283.17,362.35h107.23c59.13,0,107.23-48.1,107.23-107.23s-48.1-107.23-107.23-107.23-107.23,48.1-107.23,107.23v107.23Z"/>
    <path class="cls-1" d="M283.17,396.7h-141.58C63.51,396.7,0,333.19,0,255.12S63.51,113.53,141.58,113.53h0c78.07,0,141.58,63.51,141.58,141.58v141.58ZM141.58,147.89c-59.13,0-107.23,48.1-107.23,107.23s48.1,107.23,107.23,107.23h107.23v-107.23c0-59.13-48.1-107.23-107.23-107.23Z"/>
    <path class="cls-1" d="M265.99,283.17c-78.07,0-141.58-63.51-141.58-141.58S187.92,0,265.99,0s141.58,63.51,141.58,141.58-63.51,141.58-141.58,141.58ZM265.99,34.35c-59.13,0-107.23,48.1-107.23,107.23s48.1,107.23,107.23,107.23,107.23-48.1,107.23-107.23-48.1-107.23-107.23-107.23Z"/>
  </g>
  <g>
    <g>
      <path class="cls-2" d="M621.73,182.02h129.61v.46l5.17,27.96c-.3.15-.76.46-1.22.46-13.07-20.06-21.58-27.2-47.26-27.2h-12v110.31c.15,10.79,2.13,15.8,12,15.8v1.52c-9.88-.46-15.65-.76-21.58-.76h-3.65c-3.65,0-8.05.15-18.23.76v-1.52c10.33,0,12-5.62,12-17.32v-108.79h-11.55c-25.38,0-34.64,7.14-47.26,27.2-.3,0-1.22-.46-1.22-.46,4.1-23.1,5.17-27.96,5.17-28.41Z"/>
      <path class="cls-2" d="M775.19,299.02c.15-.91.3-1.98.3-3.04v-97.85c0-8.81-1.06-14.59-10.03-14.59v-1.52c9.12.61,14.44.91,19.75.91,5.62,0,10.79-.3,19.75-.91v1.52c-8.96,0-10.03,5.47-10.03,14.13v39.35h61.23v-38.9c0-8.81-1.06-14.59-10.03-14.59v-1.52c9.27.46,15.5.76,22.18.76,5.01,0,10.18-.15,17.32-.76v1.52c-8.96,0-10.03,5.47-10.03,14.13v96.33c0,10.79,2.13,15.8,12.16,15.8v1.52c-10.18-.46-15.95-.76-21.42-.76-6.08,0-11.7.3-22.18.76v-1.52c8.36,0,10.94-3.49,11.7-10.79.15-.91.3-1.98.3-3.04v-57.44h-61.23v55.46c0,10.79,2.13,15.8,12.16,15.8v1.52c-10.79-.46-16.41-.61-22.49-.61-5.47,0-11.24.15-21.12.61v-1.52c8.36,0,10.94-3.49,11.7-10.79Z"/>
      <path class="cls-2" d="M898.72,311.33v-1.52c10.33,0,12-5.62,12-17.32v-94.36c0-8.81-1.06-14.59-10.03-14.59v-1.52h101.04v.46l5.17,27.96-1.22.46c-15.04-20.82-26.74-27.2-55.46-27.2h-20.06v53.33h6.23c27.5,0,35.1-5.01,39.96-20.82h.91v43.15h-.91c-7.29-15.04-12.46-20.82-39.96-20.82h-6.23v71.11h16.41c27.81,0,43.76-6.08,59.26-28.87l1.06.3-5.17,30.24h-103.02Z"/>
      <path class="cls-2" d="M1082.41,182.02h129.61v.46l5.17,27.96c-.3.15-.76.46-1.22.46-13.07-20.06-21.58-27.2-47.26-27.2h-12v110.31c.15,10.79,2.13,15.8,12,15.8v1.52c-9.88-.46-15.65-.76-21.58-.76h-3.65c-3.65,0-8.05.15-18.23.76v-1.52c10.33,0,12-5.62,12-17.32v-108.79h-11.55c-25.38,0-34.64,7.14-47.26,27.2-.3,0-1.22-.46-1.22-.46,4.1-23.1,5.17-27.96,5.17-28.41Z"/>
      <path class="cls-2" d="M1281.3,182.02c27.35,0,46.19,6.84,46.19,31.76,0,26.89-25.07,25.38-45.58,30.24,10.18,0,21.88,5.77,32.97,24.62,11.7,20.51,24.77,37.23,31.15,41.18v1.52c-2.43,0-8.21-.15-13.83-.15h-8.21c-2.58,0-4.56,0-5.77.15-5.01-7.75-11.4-18.23-18.84-31-4.25-7.29-8.36-14.89-13.68-21.73-4.71-5.93-9.72-8.36-14.44-8.36-10.18,0-14.44,12.92-15.65,21.12v25.53c0,7.75,1.98,12.92,10.03,12.92v1.52c-9.27-.46-14.44-.61-20.06-.61-5.01,0-10.33.15-19.45.61v-1.52c8.96,0,10.03-5.77,10.03-14.59v-94.36c0-11.7-1.67-17.32-12-17.32v-1.52h57.13ZM1255.62,263.62c3.65-11.55,10.79-17.17,18.39-20.97,3.8-1.82,7.6-3.34,11.55-4.56,7.9-2.28,14.74-5.47,18.99-11.55,2.13-3.04,3.34-7.29,3.49-12.76v-1.67c0-20.66-15.04-28.41-32.36-28.41h-20.06v79.92Z"/>
      <path class="cls-2" d="M1353.02,311.33v-1.52c10.33,0,12-5.62,12-17.32v-94.36c0-8.81-1.06-14.59-10.03-14.59v-1.52h101.04v.46l5.17,27.96-1.22.46c-15.04-20.82-26.74-27.2-55.46-27.2h-20.06v53.33h6.23c27.5,0,35.1-5.01,39.96-20.82h.91v43.15h-.91c-7.29-15.04-12.46-20.82-39.96-20.82h-6.23v71.11h16.41c27.81,0,43.76-6.08,59.26-28.87l1.06.3-5.17,30.24h-103.02Z"/>
      <path class="cls-2" d="M1468.19,311.33v-1.52c10.33,0,12-5.62,12-17.32v-94.36c0-8.81-1.06-14.59-10.03-14.59v-1.52h101.04v.46l5.17,27.96-1.22.46c-15.04-20.82-26.74-27.2-55.46-27.2h-20.06v53.33h6.23c27.5,0,35.1-5.01,39.96-20.82h.91v43.15h-.91c-7.29-15.04-12.46-20.82-39.96-20.82h-6.23v71.11h16.41c27.81,0,43.76-6.08,59.26-28.87l1.06.3-5.17,30.24h-103.02Z"/>
    </g>
    <g>
      <path class="cls-2" d="M909.35,384.75h-26.93v-7h61.95v7h-26.93v69.61h-8.1v-69.61Z"/>
      <path class="cls-2" d="M1009.61,454.36l-17.51-24.63c-1.97.22-3.94.33-6.13.33h-20.58v24.3h-8.1v-76.62h28.68c19.48,0,31.3,9.85,31.3,26.27,0,12.04-6.35,20.47-17.51,24.08l18.72,26.27h-8.87ZM1009.17,404.01c0-12.26-8.1-19.26-23.42-19.26h-20.36v38.42h20.36c15.32,0,23.42-7.11,23.42-19.15Z"/>
      <path class="cls-2" d="M1084.48,433.9h-42.69l-9.19,20.47h-8.43l35.02-76.62h7.99l35.02,76.62h-8.54l-9.19-20.47ZM1081.52,427.33l-18.39-41.15-18.39,41.15h36.78Z"/>
      <path class="cls-2" d="M1174.67,377.75l-33.93,76.62h-7.99l-33.93-76.62h8.76l29.33,66.55,29.55-66.55h8.21Z"/>
      <path class="cls-2" d="M1239.9,447.36v7h-54.18v-76.62h52.54v7h-44.44v27.25h39.62v6.9h-39.62v28.46h46.08Z"/>
      <path class="cls-2" d="M1258.95,377.75h8.1v69.61h42.91v7h-51v-76.62Z"/>
    </g>
  </g>
  <rect class="cls-1" x="248.81" y="311.33" width="34.35" height="201.89"/>
  <rect class="cls-1" x="248.81" y="359.35" width="34.35" height="273.4" rx="17.18" ry="17.18" transform="translate(762.03 230.05) rotate(90)"/>
</svg>